<svg width="396" height="265" viewBox="0 0 396 265" fill="none" xmlns="http://www.w3.org/2000/svg">
<path d="M395.304 32.8909H0.696288C0.511621 32.8909 0.334527 32.8177 0.203948 32.6873C0.0733688 32.5569 0 32.3801 0 32.1957C0 32.0113 0.0733688 31.8345 0.203948 31.7041C0.334527 31.5737 0.511621 31.5005 0.696288 31.5005H395.304C395.488 31.5005 395.665 31.5737 395.796 31.7041C395.927 31.8345 396 32.0113 396 32.1957C396 32.3801 395.927 32.5569 395.796 32.6873C395.665 32.8177 395.488 32.8909 395.304 32.8909Z" fill="#E6E6E6"/>
<path d="M20.4395 12.0203C23.6915 12.0203 26.3277 9.32945 26.3277 6.01014C26.3277 2.69083 23.6915 0 20.4395 0C17.1875 0 14.5513 2.69083 14.5513 6.01014C14.5513 9.32945 17.1875 12.0203 20.4395 12.0203Z" fill="#E6E6E6"/>
<path d="M40.7808 12.0203C44.0328 12.0203 46.669 9.32945 46.669 6.01014C46.669 2.69083 44.0328 0 40.7808 0C37.5288 0 34.8926 2.69083 34.8926 6.01014C34.8926 9.32945 37.5288 12.0203 40.7808 12.0203Z" fill="#E6E6E6"/>
<path d="M61.1216 12.0203C64.3736 12.0203 67.0099 9.32945 67.0099 6.01014C67.0099 2.69083 64.3736 0 61.1216 0C57.8697 0 55.2334 2.69083 55.2334 6.01014C55.2334 9.32945 57.8697 12.0203 61.1216 12.0203Z" fill="#E6E6E6"/>
<path d="M84.3159 10.7604C84.2231 10.7605 84.1313 10.7421 84.0458 10.7062C83.9603 10.6702 83.8829 10.6176 83.8182 10.5513L79.8451 6.49614C79.7178 6.36627 79.6465 6.19177 79.6465 6.01003C79.6465 5.8283 79.7178 5.6538 79.8451 5.52393L83.8182 1.4691C83.9477 1.33931 84.1234 1.26583 84.3069 1.26466C84.4904 1.2635 84.667 1.33475 84.7982 1.46288C84.9294 1.59102 85.0047 1.7657 85.0075 1.94893C85.0104 2.13215 84.9407 2.30911 84.8136 2.44131L81.3169 6.01003L84.8136 9.5791C84.9095 9.67692 84.9743 9.8008 84.9999 9.93523C85.0255 10.0697 85.0108 10.2087 84.9577 10.3348C84.9045 10.4609 84.8153 10.5686 84.7011 10.6443C84.587 10.72 84.4529 10.7604 84.3159 10.7604Z" fill="#E6E6E6"/>
<path d="M90.9922 10.7604C90.8551 10.7604 90.7211 10.72 90.6069 10.6443C90.4928 10.5686 90.4035 10.4609 90.3504 10.3348C90.2972 10.2086 90.2825 10.0697 90.3082 9.93523C90.3338 9.8008 90.3986 9.67692 90.4944 9.5791L93.9908 6.01003L90.4944 2.44131C90.3673 2.30911 90.2976 2.13215 90.3005 1.94893C90.3034 1.7657 90.3786 1.591 90.5098 1.46286C90.641 1.33472 90.8176 1.2635 91.0011 1.26466C91.1847 1.26583 91.3603 1.33931 91.4899 1.4691L95.4626 5.52393C95.5899 5.6538 95.6612 5.8283 95.6612 6.01003C95.6612 6.19177 95.5899 6.36627 95.4626 6.49614L91.4899 10.5513C91.4251 10.6176 91.3477 10.6702 91.2622 10.7062C91.1767 10.7421 91.0849 10.7605 90.9922 10.7604Z" fill="#E6E6E6"/>
<path d="M360.115 0.695801H352.727C352.527 0.695741 352.328 0.735086 352.143 0.811578C351.958 0.88807 351.79 1.00023 351.649 1.14162C351.507 1.28301 351.395 1.45087 351.318 1.63561C351.241 1.82036 351.202 2.01836 351.202 2.21831V9.60144C351.202 9.8014 351.241 9.99942 351.318 10.1842C351.395 10.3689 351.507 10.5368 351.649 10.6782C351.79 10.8196 351.958 10.9317 352.143 11.0082C352.328 11.0847 352.527 11.124 352.727 11.124H360.115C360.52 11.1243 360.909 10.9643 361.196 10.6789C361.483 10.3935 361.645 10.006 361.646 9.60144V2.21831C361.645 1.81376 361.483 1.42631 361.196 1.14089C360.909 0.855484 360.52 0.695412 360.115 0.695801Z" fill="#E6E6E6"/>
<path d="M342.011 0.695801H334.624C334.423 0.695741 334.225 0.735086 334.04 0.811578C333.855 0.88807 333.687 1.00023 333.545 1.14162C333.404 1.28301 333.291 1.45087 333.215 1.63561C333.138 1.82036 333.099 2.01836 333.099 2.21831V9.60144C333.099 9.8014 333.138 9.99942 333.215 10.1842C333.291 10.3689 333.404 10.5368 333.545 10.6782C333.687 10.8196 333.855 10.9317 334.04 11.0082C334.225 11.0847 334.423 11.124 334.624 11.124H342.011C342.416 11.1243 342.805 10.9643 343.092 10.6789C343.379 10.3935 343.541 10.006 343.543 9.60144V2.21831C343.541 1.81376 343.379 1.42631 343.092 1.14089C342.805 0.855484 342.416 0.695412 342.011 0.695801Z" fill="#E6E6E6"/>
<path d="M377.173 1.04346H369.786C369.585 1.0434 369.387 1.08274 369.202 1.15923C369.017 1.23573 368.849 1.34788 368.707 1.48927C368.566 1.63066 368.453 1.79852 368.377 1.98327C368.3 2.16802 368.261 2.36601 368.261 2.56597V9.9491C368.261 10.1491 368.3 10.3471 368.377 10.5318C368.453 10.7166 368.566 10.8844 368.707 11.0258C368.849 11.1672 369.017 11.2794 369.202 11.3559C369.387 11.4323 369.585 11.4717 369.786 11.4716H377.173C377.578 11.472 377.967 11.3119 378.254 11.0265C378.542 10.7411 378.704 10.3537 378.705 9.9491V2.56597C378.704 2.16142 378.542 1.77396 378.254 1.48855C377.967 1.20314 377.578 1.04307 377.173 1.04346Z" fill="#E6E6E6"/>
<path d="M227.526 3.85205H168.474C167.981 3.85205 167.508 4.04763 167.159 4.39574C166.811 4.74384 166.615 5.21597 166.615 5.70827C166.615 6.20057 166.811 6.6727 167.159 7.02081C167.508 7.36891 167.981 7.56449 168.474 7.56449H227.526C228.019 7.56449 228.492 7.36891 228.841 7.02081C229.189 6.6727 229.385 6.20057 229.385 5.70827C229.385 5.21597 229.189 4.74384 228.841 4.39574C228.492 4.04763 228.019 3.85205 227.526 3.85205Z" fill="#E6E6E6"/>
<path d="M128.515 184.787H70.0263C67.164 184.787 64.4189 185.922 62.3949 187.943C60.371 189.964 59.2339 192.705 59.2339 195.563C59.2339 198.421 60.371 201.162 62.3949 203.182C64.4189 205.203 67.164 206.339 70.0263 206.339H128.515C131.377 206.339 134.122 205.203 136.146 203.182C138.17 201.162 139.307 198.421 139.307 195.563C139.307 192.705 138.17 189.964 136.146 187.943C134.122 185.922 131.377 184.787 128.515 184.787Z" fill="white"/>
<path d="M128.515 207.034H70.0263C66.9793 207.034 64.0571 205.825 61.9026 203.674C59.748 201.523 58.5376 198.605 58.5376 195.563C58.5376 192.52 59.748 189.603 61.9026 187.452C64.0571 185.3 66.9793 184.092 70.0263 184.092H128.515C131.562 184.092 134.484 185.3 136.638 187.452C138.793 189.603 140.003 192.52 140.003 195.563C140.003 198.605 138.793 201.523 136.638 203.674C134.484 205.825 131.562 207.034 128.515 207.034ZM70.0263 185.482C67.3487 185.482 64.7807 186.544 62.8873 188.435C60.9939 190.325 59.9302 192.889 59.9302 195.563C59.9302 198.236 60.9939 200.8 62.8873 202.691C64.7807 204.581 67.3487 205.643 70.0263 205.643H128.515C131.192 205.643 133.76 204.581 135.654 202.691C137.547 200.8 138.611 198.236 138.611 195.563C138.611 192.889 137.547 190.325 135.654 188.435C133.76 186.544 131.192 185.482 128.515 185.482H70.0263Z" fill="#6C63FF"/>
<path d="M361.14 72.0164H203.088C192.803 72.0164 184.466 80.3406 184.466 90.6091V246.407C184.466 256.676 192.803 265 203.088 265H361.14C371.425 265 379.762 256.676 379.762 246.407V90.6091C379.762 80.3406 371.425 72.0164 361.14 72.0164Z" fill="#F2F2F2"/>
<path d="M289.731 151.614C289.245 151.083 288.985 150.384 289.008 149.665C289.03 148.946 289.332 148.265 289.85 147.765C289.957 147.665 290.072 147.574 290.194 147.493L287.864 138.148L292.197 135.299L294.003 148.446C294.3 148.976 294.413 149.59 294.324 150.192C294.234 150.793 293.948 151.348 293.51 151.77C293.258 152.008 292.962 152.194 292.639 152.317C292.315 152.441 291.97 152.499 291.624 152.49C291.277 152.48 290.936 152.403 290.62 152.261C290.304 152.12 290.018 151.918 289.78 151.667C289.763 151.649 289.747 151.632 289.731 151.614Z" fill="#FFB6B6"/>
<path d="M294.223 142.4L288.54 142.927L280.099 113.288C280.075 113.206 277.576 104.882 275.051 103.58C274.111 103.095 273.767 102.806 273.78 102.511C273.794 102.207 274.176 102.053 274.704 101.84C275.236 101.65 275.737 101.386 276.194 101.056C277.346 100.147 276.839 99.2713 276.139 98.0597C276.003 97.8244 275.861 97.5799 275.726 97.3241C275.326 96.5688 275.773 93.3598 277.053 87.7866C277.434 86.1188 278.335 84.6144 279.626 83.49C280.917 82.3656 282.532 81.679 284.239 81.529C285.317 81.4324 286.404 81.5523 287.436 81.8816C288.467 82.2109 289.422 82.743 290.244 83.4465C291.067 84.15 291.74 85.0107 292.224 85.9778C292.708 86.945 292.993 87.9991 293.063 89.0781L294.173 106.242L294.223 142.4Z" fill="#0D0F10"/>
<path d="M271.902 247.965L267.949 247.932L266.198 232.35L272.034 232.4L271.902 247.965Z" fill="#FFB6B6"/>
<path d="M259.238 254.242C259.235 254.71 259.417 255.16 259.746 255.494C260.074 255.828 260.522 256.018 260.991 256.023L268.852 256.088L270.228 253.303L270.733 256.102L273.699 256.129L272.95 246.145L271.918 246.077L267.709 245.787L266.351 245.696L266.327 248.521L260.013 252.797C259.776 252.958 259.582 253.173 259.447 253.424C259.312 253.676 259.241 253.957 259.238 254.242Z" fill="#2F2E41"/>
<path d="M313.529 245.081L309.75 246.241L303.371 231.914L308.949 230.202L313.529 245.081Z" fill="#FFB6B6"/>
<path d="M303.353 254.882C303.492 255.329 303.802 255.704 304.216 255.923C304.63 256.142 305.114 256.188 305.562 256.051L313.076 253.745L313.546 250.675L314.874 253.191L317.71 252.323L313.978 243.03L312.973 243.276L308.873 244.268L307.551 244.591L308.382 247.291L303.655 253.271C303.478 253.495 303.358 253.759 303.305 254.04C303.253 254.32 303.269 254.609 303.353 254.882Z" fill="#2F2E41"/>
<path d="M263.95 116.949L256.405 138.842L256.156 140.594C254.255 142.396 256.643 142.99 255.748 143.465C254.852 143.94 254.25 145.273 255.457 145.511C256.663 145.749 256.19 232.403 261.322 235.718C266.454 239.034 278.301 242.715 277.359 237.86C276.416 233.005 276.762 173.05 276.762 173.05C276.762 173.05 301.953 236.884 303.675 236.904C305.397 236.924 317.705 232.308 317.135 230.095C316.566 227.881 294.211 172.465 295.729 170.334C297.246 168.202 297.824 167.276 296.327 167.136C294.831 166.996 294.389 167.816 294.308 165.749C294.227 163.681 293.969 158.583 293.969 158.583C293.969 158.583 292.885 138.419 285.294 127.278L284.647 120.659L263.95 116.949Z" fill="#2F2E41"/>
<path d="M282.799 75.1506L272.794 76.5731L272.19 83.8069L267.253 91.5185C267.253 91.5185 256.278 99.23 263.932 111.412L263.436 118.168L288.19 128.114L290.571 84.7803L282.799 75.1506Z" fill="#0D0F10"/>
<path d="M266.024 154.112C265.709 153.465 265.66 152.721 265.886 152.038C266.112 151.355 266.596 150.788 267.235 150.456C267.366 150.391 267.502 150.336 267.642 150.293L268.071 140.672L273.037 139.172L271.022 152.288C271.156 152.881 271.089 153.502 270.832 154.053C270.575 154.604 270.143 155.055 269.602 155.335C269.293 155.492 268.956 155.586 268.611 155.612C268.266 155.639 267.918 155.597 267.589 155.489C267.26 155.382 266.955 155.21 266.692 154.985C266.429 154.76 266.213 154.485 266.056 154.176C266.045 154.155 266.034 154.133 266.024 154.112Z" fill="#FFB6B6"/>
<path d="M272.956 146.555L267.358 145.446L267.712 114.634C267.712 114.548 267.688 105.859 265.639 103.893C264.876 103.161 264.628 102.786 264.725 102.508C264.825 102.22 265.235 102.181 265.802 102.126C266.366 102.096 266.922 101.985 267.454 101.798C268.817 101.254 268.581 100.271 268.255 98.9099C268.191 98.6457 268.125 98.3711 268.069 98.0875C267.901 97.2499 269.243 94.3004 272.059 89.3213C272.899 87.8305 274.191 86.6442 275.749 85.933C277.308 85.2219 279.052 85.0225 280.73 85.3635C281.792 85.5773 282.8 86.001 283.695 86.6097C284.59 87.2184 285.354 87.9998 285.942 88.9078C286.529 89.8158 286.929 90.8321 287.118 91.8969C287.306 92.9616 287.279 94.0532 287.039 95.1074L283.212 111.877L272.956 146.555Z" fill="#0D0F10"/>
<path d="M276.793 74.8875C282.968 74.8875 287.973 69.8896 287.973 63.7244C287.973 57.5592 282.968 52.5613 276.793 52.5613C270.618 52.5613 265.612 57.5592 265.612 63.7244C265.612 69.8896 270.618 74.8875 276.793 74.8875Z" fill="#FFB6B6"/>
<path d="M291.609 79.2036C293.109 81.3478 294.113 83.7985 294.547 86.3781C293.338 87.1506 291.93 87.5563 290.495 87.5461C290.446 87.3584 290.397 87.1707 290.342 86.983C289.926 85.5295 289.307 84.1416 288.504 82.8604C288.614 84.242 288.426 85.6311 287.953 86.9343C287.195 86.5901 286.382 86.3807 285.551 86.3156C284.875 86.3155 284.207 86.4726 283.602 86.7744C282.898 84.4455 282.251 82.3042 281.791 80.7678C281.777 84.6192 276.124 87.9771 269.954 87.4905C269.732 87.3514 271.967 81.0181 271.751 80.8721C271.256 80.5453 270.776 80.1908 270.296 79.8432C272.315 76.7286 274.508 73.3916 274.132 72.8911C274.16 73.5098 271.946 76.4853 269.537 79.2939C268.2 78.3137 275.796 62.3656 272.043 61.0725C271.981 61.6356 271.152 61.6356 270.142 61.5174C269.876 60.5883 269.48 59.7013 268.966 58.8826C269.033 59.7073 268.933 60.5371 268.673 61.3227C267.676 61.323 266.682 61.4279 265.707 61.6356C265.481 61.2812 265.233 60.9421 264.962 60.6206C264.989 61.0124 264.977 61.4059 264.927 61.7955C264.241 61.8732 263.58 62.1011 262.992 62.4629C262.212 62.1779 263.542 60.8917 263.054 60.2243C261.815 58.5558 263.653 56.1226 264.816 54.3985C266.069 52.6662 267.908 51.4453 269.993 50.961C272.078 50.4768 274.268 50.7618 276.158 51.7636C276.325 51.1866 277.182 50.8042 278.282 50.547C278.748 50.4444 279.225 50.4 279.702 50.4149C284.437 50.4983 291.01 54.3985 291.268 59.1189C291.289 59.5917 291.323 60.1061 291.358 60.6554C291.692 65.939 291.282 70.8124 294.895 74.6778C296.204 76.0751 296.218 82.6936 295.717 86.1001C294.415 84.7305 293.489 79.4052 291.609 79.2036Z" fill="#2F2E41"/>
<path d="M227.538 255.543C227.537 255.651 227.558 255.759 227.6 255.86C227.642 255.96 227.703 256.051 227.78 256.128C227.857 256.205 227.948 256.266 228.049 256.308C228.149 256.349 228.257 256.37 228.366 256.37H343.456C343.675 256.37 343.886 256.283 344.042 256.128C344.197 255.972 344.284 255.762 344.284 255.543C344.284 255.323 344.197 255.113 344.042 254.958C343.886 254.802 343.675 254.715 343.456 254.715H228.366C228.257 254.715 228.149 254.736 228.049 254.778C227.948 254.819 227.857 254.88 227.78 254.957C227.703 255.034 227.642 255.125 227.6 255.226C227.558 255.326 227.537 255.434 227.538 255.543Z" fill="#CCCCCC"/>
<path d="M172.142 85.1576H29.8168C29.0028 85.1576 28.2221 84.8347 27.6465 84.26C27.0709 83.6853 26.7476 82.9058 26.7476 82.0931C26.7476 81.2803 27.0709 80.5008 27.6465 79.9261C28.2221 79.3514 29.0028 79.0286 29.8168 79.0286H172.142C172.956 79.0286 173.737 79.3514 174.313 79.9261C174.888 80.5008 175.212 81.2803 175.212 82.0931C175.212 82.9058 174.888 83.6853 174.313 84.26C173.737 84.8347 172.956 85.1576 172.142 85.1576Z" fill="#D9D9D9"/>
<path d="M172.142 150.507H29.8168C29.0028 150.507 28.2221 150.185 27.6465 149.61C27.0709 149.035 26.7476 148.256 26.7476 147.443C26.7476 146.63 27.0709 145.851 27.6465 145.276C28.2221 144.701 29.0028 144.378 29.8168 144.378H172.142C172.956 144.378 173.737 144.701 174.313 145.276C174.888 145.851 175.212 146.63 175.212 147.443C175.212 148.256 174.888 149.035 174.313 149.61C173.737 150.185 172.956 150.507 172.142 150.507Z" fill="#D9D9D9"/>
<path d="M244.19 117.854H29.8168C29.0028 117.854 28.2221 117.531 27.6465 116.957C27.0709 116.382 26.7476 115.602 26.7476 114.79C26.7476 113.977 27.0709 113.197 27.6465 112.623C28.2221 112.048 29.0028 111.725 29.8168 111.725H244.19C245.004 111.725 245.785 112.048 246.36 112.623C246.936 113.197 247.259 113.977 247.259 114.79C247.259 115.602 246.936 116.382 246.36 116.957C245.785 117.531 245.004 117.854 244.19 117.854Z" fill="#D9D9D9"/>
<path d="M175.211 159.716C175.027 159.716 174.85 159.642 174.719 159.512C174.589 159.382 174.515 159.205 174.515 159.02V135.865C174.515 135.681 174.588 135.504 174.719 135.374C174.85 135.243 175.027 135.17 175.211 135.17C175.396 135.17 175.573 135.243 175.704 135.374C175.834 135.504 175.908 135.681 175.908 135.865V159.02C175.908 159.205 175.834 159.382 175.704 159.512C175.573 159.642 175.396 159.716 175.211 159.716Z" fill="#3F3D56"/>
<path d="M14.5894 70.2855C14.5894 70.1012 14.6627 69.9243 14.7933 69.794C14.9239 69.6636 15.101 69.5903 15.2856 69.5903H38.4766C38.6613 69.5903 38.8384 69.6636 38.969 69.7939C39.0996 69.9243 39.1729 70.1012 39.1729 70.2855C39.1729 70.4699 39.0996 70.6467 38.969 70.7771C38.8384 70.9075 38.6613 70.9808 38.4766 70.9808H15.2856C15.101 70.9808 14.9239 70.9075 14.7933 70.7771C14.6627 70.6467 14.5894 70.4699 14.5894 70.2855Z" fill="#3F3D56"/>
<path d="M26.8813 94.3659C26.6967 94.3658 26.5196 94.2926 26.389 94.1622C26.2584 94.0318 26.1851 93.855 26.1851 93.6706V70.5155C26.1851 70.3311 26.2584 70.1543 26.389 70.0239C26.5196 69.8936 26.6967 69.8203 26.8813 69.8203C27.066 69.8203 27.2431 69.8936 27.3737 70.0239C27.5043 70.1543 27.5776 70.3311 27.5776 70.5155V93.6706C27.5776 93.855 27.5043 94.0318 27.3737 94.1622C27.2431 94.2926 27.066 94.3658 26.8813 94.3659Z" fill="#3F3D56"/>
</svg>
