<svg width="20" height="12" viewBox="0 0 20 12" fill="none" xmlns="http://www.w3.org/2000/svg">
<path d="M6.24997 11.1953C6.05131 11.1955 5.85938 11.1233 5.71012 10.9922L0.710125 6.61718C0.622186 6.54018 0.551716 6.44529 0.503434 6.33885C0.455153 6.2324 0.430176 6.11687 0.430176 5.99999C0.430176 5.88311 0.455153 5.76758 0.503434 5.66114C0.551716 5.55469 0.622186 5.4598 0.710125 5.3828L5.71012 1.0078C5.87387 0.864524 6.08782 0.792159 6.30491 0.806627C6.52201 0.821095 6.72446 0.921212 6.86774 1.08495C7.01102 1.24869 7.08339 1.46264 7.06892 1.67974C7.05445 1.89683 6.95433 2.09929 6.79059 2.24257L2.49567 5.99999L6.7902 9.75741C6.9159 9.8673 7.00507 10.0129 7.0458 10.1748C7.08654 10.3367 7.07691 10.5072 7.01819 10.6635C6.95947 10.8198 6.85446 10.9544 6.71719 11.0495C6.57992 11.1445 6.41692 11.1954 6.24997 11.1953ZM13.75 11.1953C13.583 11.1954 13.4199 11.1446 13.2826 11.0496C13.1453 10.9546 13.0402 10.82 12.9814 10.6637C12.9227 10.5074 12.913 10.3369 12.9537 10.1749C12.9944 10.013 13.0836 9.86732 13.2093 9.75741L17.5043 5.99999L13.2097 2.24257C13.046 2.09929 12.9459 1.89683 12.9314 1.67974C12.9169 1.46264 12.9893 1.24869 13.1326 1.08495C13.2759 0.921212 13.4783 0.821095 13.6954 0.806627C13.9125 0.792159 14.1265 0.864524 14.2902 1.0078L19.2902 5.3828C19.3781 5.4598 19.4486 5.55469 19.4969 5.66114C19.5452 5.76758 19.5702 5.88311 19.5702 5.99999C19.5702 6.11687 19.5452 6.2324 19.4969 6.33885C19.4486 6.44529 19.3781 6.54018 19.2902 6.61718L14.2902 10.9922C14.1409 11.1234 13.9488 11.1957 13.75 11.1953Z" fill="white"/>
</svg>
