<svg width="15" height="15" viewBox="0 0 15 15" fill="none" xmlns="http://www.w3.org/2000/svg">
<path fill-rule="evenodd" clip-rule="evenodd" d="M7.5 0C3.35775 0 5.83049e-06 3.35771 5.83049e-06 7.4999C-0.00137413 8.60501 0.242218 9.69667 0.713256 10.6964L0.0157558 14.0991C-0.00907746 14.2206 -0.0033976 14.3463 0.0322869 14.4651C0.0679714 14.5838 0.132547 14.6919 0.220233 14.7796C0.30792 14.8673 0.41598 14.9318 0.534742 14.9675C0.653503 15.0032 0.77926 15.0089 0.900755 14.9841L4.3035 14.2866C5.274 14.7441 6.3585 14.9991 7.5 14.9991C11.6423 14.9991 15 11.6421 15 7.49915C15 3.35771 11.6423 0 7.5 0Z" fill="#EDF5FD"/>
</svg>
