<svg width="32" height="37" viewBox="0 0 32 37" fill="none" xmlns="http://www.w3.org/2000/svg">
<path fill-rule="evenodd" clip-rule="evenodd" d="M6.66667 5.78887H11.3333V30.8778H6.66667C5.42899 30.8778 4.242 30.5002 3.36684 29.828C2.49167 29.1559 2 28.2442 2 27.2937V9.37301C2 8.42243 2.49167 7.5108 3.36684 6.83864C4.242 6.16649 5.42899 5.78887 6.66667 5.78887ZM17.638 2.22804L26.9713 4.91614C27.861 5.17228 28.6278 5.63091 29.169 6.23072C29.7102 6.83052 30.0001 7.54292 30 8.27268V28.394C30.0001 29.1237 29.7102 29.8361 29.169 30.4359C28.6278 31.0358 27.861 31.4944 26.9713 31.7505L17.638 34.4386C16.9319 34.6419 16.1722 34.7107 15.424 34.6393C14.6757 34.5678 13.9611 34.3581 13.3414 34.0282C12.7217 33.6982 12.2153 33.2579 11.8656 32.7448C11.5159 32.2317 11.3332 31.6612 11.3333 31.0821V5.58458C11.3332 5.00545 11.5159 4.43493 11.8656 3.92186C12.2153 3.40878 12.7217 2.96843 13.3414 2.6385C13.9611 2.30858 14.6757 2.09889 15.424 2.02741C16.1722 1.95593 16.9319 2.02477 17.638 2.22804Z" stroke="#1877DC" stroke-width="3" stroke-linecap="round" stroke-linejoin="round"/>
</svg>
