<svg width="5" height="5" viewBox="0 0 5 5" fill="none" xmlns="http://www.w3.org/2000/svg">
<path d="M2.49984 0.416626C2.22625 0.416626 1.95534 0.470513 1.70258 0.57521C1.44982 0.679908 1.22015 0.833365 1.0267 1.02682C0.635997 1.41752 0.416504 1.94742 0.416504 2.49996C0.416504 3.05249 0.635997 3.5824 1.0267 3.9731C1.22015 4.16655 1.44982 4.32001 1.70258 4.42471C1.95534 4.52941 2.22625 4.58329 2.49984 4.58329C3.05237 4.58329 3.58228 4.3638 3.97298 3.9731C4.36368 3.5824 4.58317 3.05249 4.58317 2.49996C4.58317 2.22637 4.52928 1.95546 4.42459 1.7027C4.31989 1.44994 4.16643 1.22028 3.97298 1.02682C3.77952 0.833365 3.54986 0.679908 3.29709 0.57521C3.04433 0.470513 2.77342 0.416626 2.49984 0.416626ZM3.37484 3.37496L2.2915 2.70829V1.45829H2.604V2.54163L3.5415 3.10413L3.37484 3.37496Z" fill="#EDF5FD"/>
</svg>
