<svg width="513" height="340" viewBox="0 0 513 340" fill="none" xmlns="http://www.w3.org/2000/svg">
<path d="M259.39 95.5606C254.825 88.0097 249.415 79.9475 240.942 77.4819C231.131 74.6266 221.052 80.2987 212.502 85.896C186.935 102.636 162.313 120.777 138.75 140.236L138.775 140.529C157.12 139.264 175.466 137.999 193.811 136.734C207.065 135.82 220.775 134.78 232.488 128.51C236.933 126.13 241.265 122.952 246.302 122.731C252.56 122.456 258.016 126.826 262.304 131.392C287.667 158.401 295.007 199.704 323.463 223.433C305.52 179.182 284.095 136.424 259.39 95.5606Z" fill="#F2F2F2"/>
<path d="M415.297 324.646C412.493 321.104 411.347 320.275 408.58 316.7C386.052 287.564 364.878 257.444 345.057 226.339C331.595 205.214 318.799 183.684 306.671 161.748C300.898 151.319 295.282 140.808 289.825 130.216C285.59 122.003 281.45 113.74 277.404 105.429C276.247 103.055 275.123 100.67 274.005 98.28C271.369 92.659 268.782 87.0108 266.004 81.4662C262.839 75.1468 258.986 68.5217 253.174 64.276C250.529 62.2645 247.366 61.0474 244.055 60.767C239.324 60.4614 234.958 62.4151 230.854 64.5488C200.828 80.2056 172.718 99.8353 147.293 122.172C121.803 144.558 99.0185 169.85 79.4049 197.531C78.8049 198.387 77.3859 197.569 77.9916 196.707C80.3764 193.334 82.8086 189.998 85.2879 186.698C116.117 145.696 153.919 110.436 196.965 82.5304C204.207 77.8372 211.585 73.3641 219.099 69.1111C222.886 66.9664 226.69 64.849 230.559 62.8626C234.352 60.9143 238.38 59.1625 242.713 59.0971C257.458 58.8679 265.093 75.567 270.337 86.8034C271.985 90.3397 273.653 93.8651 275.341 97.3795C281.721 110.722 288.346 123.943 295.217 137.043C299.457 145.13 303.79 153.171 308.216 161.164C321.99 186.054 336.63 210.441 352.136 234.323C372.677 265.959 393.054 293.905 416.454 323.489C417.099 324.308 415.947 325.475 415.297 324.646Z" fill="#E4E4E4"/>
<path d="M145.836 113.926C144.979 112.971 144.128 112.016 143.265 111.061C136.466 103.541 129.17 96.108 119.832 91.7968C115.38 89.6763 110.52 88.5497 105.589 88.4952C100.492 88.5116 95.5093 89.8486 90.7998 91.7204C88.5732 92.61 86.3956 93.6195 84.2511 94.6946C81.8007 95.9279 79.394 97.2432 76.9984 98.5693C72.5016 101.058 68.063 103.655 63.6828 106.362C54.9675 111.748 46.5252 117.546 38.3557 123.754C34.1208 126.974 29.9732 130.299 25.9131 133.73C22.1367 136.917 18.4368 140.19 14.8132 143.548C14.0383 144.263 12.8813 143.106 13.6562 142.391C14.6112 141.501 15.5771 140.617 16.5431 139.744C19.2717 137.277 22.044 134.858 24.86 132.486C29.9951 128.153 35.2631 123.987 40.6641 119.989C49.0629 113.768 57.7508 107.968 66.7278 102.591C71.2137 99.9063 75.7614 97.3341 80.3708 94.8747C81.7626 94.1325 83.1706 93.4067 84.5949 92.7191C87.8266 91.0889 91.1846 89.722 94.6361 88.6316C99.5253 87.05 104.698 86.5418 109.802 87.1418C114.729 87.8586 119.477 89.501 123.794 91.9824C132.962 97.1067 140.073 105.031 146.993 112.764C147.691 113.549 146.54 114.712 145.836 113.926Z" fill="#E4E4E4"/>
<path d="M333.686 191.854L355.655 183.818L366.563 179.829C370.115 178.53 373.659 177.05 377.332 176.12C380.523 175.208 383.912 175.252 387.079 176.244C389.903 177.29 392.489 178.892 394.681 180.957C396.921 183.02 399.006 185.246 400.917 187.616C403.292 190.47 405.631 193.354 407.982 196.228C417.682 208.091 427.318 220.005 436.891 231.97C446.464 243.936 455.972 255.952 465.417 268.019C474.885 280.115 484.288 292.262 493.625 304.46C494.769 305.954 495.912 307.449 497.054 308.945C497.685 309.771 499.108 308.957 498.468 308.119C489.061 295.798 479.589 283.529 470.051 271.309C460.49 259.06 450.863 246.864 441.17 234.719C431.477 222.574 421.718 210.483 411.894 198.443C409.447 195.444 406.995 192.448 404.54 189.455C402.469 186.931 400.421 184.379 398.149 182.03C393.978 177.717 388.768 173.905 382.532 173.802C378.865 173.741 375.316 174.904 371.909 176.137C368.236 177.466 364.572 178.819 360.904 180.161L338.782 188.252L333.251 190.275C332.27 190.634 332.694 192.217 333.686 191.854Z" fill="#E4E4E4"/>
<path d="M116.941 101.259C105.777 95.5214 91.4793 96.6452 81.2202 103.814C100.789 107.19 120.143 111.707 139.184 117.342C131.277 112.709 125.092 105.449 116.941 101.259Z" fill="#F2F2F2"/>
<path d="M81.1102 103.794L78.9609 105.541C79.6879 104.929 80.4437 104.356 81.2201 103.814C81.1834 103.807 81.1469 103.8 81.1102 103.794Z" fill="#F2F2F2"/>
<path d="M393.854 191.934C391.692 189.302 389.354 186.545 386.119 185.476L383.099 185.595C406.088 226.217 437.136 261.713 474.338 289.903C447.51 257.246 420.682 224.59 393.854 191.934Z" fill="#F2F2F2"/>
<path d="M206.06 170.218C207.458 175.296 210.606 179.715 214.948 182.695C216.627 183.838 218.614 184.934 219.188 186.882C219.49 188.124 219.304 189.435 218.668 190.543C218.033 191.638 217.26 192.646 216.369 193.545L216.288 193.849C212.122 191.38 208.158 188.258 205.857 183.997C203.556 179.736 203.234 174.151 206.06 170.218Z" fill="#F2F2F2"/>
<path d="M344.763 291.062C346.161 296.14 349.309 300.559 353.652 303.539C355.33 304.682 357.317 305.779 357.891 307.727C358.193 308.969 358.007 310.279 357.371 311.388C356.736 312.482 355.964 313.491 355.072 314.389L354.991 314.694C350.825 312.225 346.861 309.102 344.56 304.841C342.259 300.58 341.937 294.995 344.763 291.062Z" fill="#F2F2F2"/>
<path d="M67.9526 282.729C69.3502 287.806 72.4987 292.225 76.841 295.205C78.5198 296.348 80.5061 297.445 81.0804 299.393C81.3825 300.635 81.1964 301.945 80.5604 303.054C79.9255 304.148 79.153 305.157 78.2618 306.055L78.1804 306.36C74.0143 303.891 70.0509 300.768 67.7496 296.507C65.4482 292.246 65.127 286.661 67.9526 282.729Z" fill="#F2F2F2"/>
<path d="M386.493 60.7198C403.26 60.7198 416.853 47.1272 416.853 30.3599C416.853 13.5926 403.26 0 386.493 0C369.725 0 356.133 13.5926 356.133 30.3599C356.133 47.1272 369.725 60.7198 386.493 60.7198Z" fill="#16477A"/>
<path d="M441.281 7.06621C426.567 5.07737 409.769 13.0302 405.955 27.3797C404.994 24.8283 403.247 22.6486 400.966 21.1553C398.685 19.662 395.988 18.9326 393.266 19.0723C390.543 19.212 387.935 20.2137 385.819 21.9326C383.702 23.6515 382.188 25.9987 381.493 28.635L383.177 29.8414C414.708 36.6601 447.348 36.5125 478.816 29.409C468.581 18.6527 455.994 9.05501 441.281 7.06621Z" fill="#F0F0F0"/>
<path d="M378.18 47.5462C363.466 45.5574 346.668 53.5102 342.854 67.8597C341.893 65.3083 340.146 63.1286 337.865 61.6353C335.584 60.142 332.887 59.4126 330.164 59.5523C327.442 59.692 324.834 60.6937 322.718 62.4126C320.601 64.1315 319.086 66.4786 318.392 69.115L320.076 70.3214C351.607 77.1401 384.247 76.9925 415.715 69.889C405.48 59.1327 392.893 49.535 378.18 47.5462Z" fill="#F0F0F0"/>
<path d="M506.6 55.2005C506.539 55.2006 506.479 55.1912 506.421 55.1726C349.021 5.39536 210.296 11.9046 121.636 26.1306C109.57 28.0659 97.472 30.3011 85.6777 32.7747C82.6667 33.4055 79.5429 34.0816 76.3932 34.7856C72.6316 35.6233 68.9201 36.486 65.3611 37.3487C63.824 37.7126 62.317 38.0795 60.84 38.4492C58.6027 39.0015 56.3326 39.577 53.8991 40.2095C51.1799 40.9106 48.417 41.646 45.6856 42.3953C45.6756 42.3988 45.6654 42.4017 45.6551 42.404L45.6554 42.4046C42.5702 43.247 39.5013 44.1138 36.5336 44.9794C34.9273 45.4433 33.3763 45.9008 31.8907 46.3525C31.7247 46.3984 31.5777 46.4426 31.4286 46.488L31.1094 46.585C30.9245 46.6414 30.742 46.6966 30.5595 46.749L30.5478 46.7525L30.5481 46.7531L30.065 46.9031C29.4889 47.0775 28.9268 47.2478 28.3739 47.4176C13.7625 51.9218 5.73012 55.1261 5.65077 55.1575C5.57821 55.1866 5.50063 55.2011 5.42246 55.2002C5.34429 55.1993 5.26706 55.183 5.19518 55.1523C5.1233 55.1215 5.05818 55.077 5.00354 55.021C4.9489 54.9651 4.9058 54.899 4.87672 54.8264C4.84763 54.7539 4.83313 54.6763 4.83402 54.5981C4.83492 54.5199 4.8512 54.4427 4.88195 54.3708C4.91269 54.299 4.95729 54.2338 5.01319 54.1792C5.0691 54.1246 5.13523 54.0815 5.20779 54.0524C5.28772 54.021 13.3593 50.8004 28.0239 46.2793C28.5788 46.109 29.1424 45.9386 29.7203 45.7636L30.1691 45.6241C30.1845 45.6183 30.1999 45.6137 30.2156 45.609C30.3973 45.5573 30.5786 45.502 30.7629 45.4462L31.0826 45.3491C31.2419 45.3009 31.3989 45.2532 31.5596 45.209C33.0351 44.7602 34.5913 44.3016 36.2016 43.8359C39.1705 42.9697 42.2423 42.1029 45.3298 41.2594C45.3394 41.2559 45.3493 41.2536 45.3589 41.2507C48.0999 40.499 50.8729 39.7601 53.6009 39.0567C56.0381 38.4236 58.3126 37.8469 60.5537 37.2935C62.037 36.9244 63.5469 36.5568 65.0835 36.1907C68.6465 35.3268 72.3656 34.463 76.1339 33.6235C79.2885 32.9189 82.4176 32.2411 85.4336 31.6097C97.2461 29.1321 109.363 26.8933 121.447 24.9551C210.234 10.7088 349.158 4.18906 506.779 54.0378C506.915 54.0806 507.031 54.1705 507.106 54.2912C507.181 54.4119 507.21 54.5555 507.188 54.6959C507.167 54.8364 507.095 54.9645 506.988 55.057C506.88 55.1496 506.742 55.2005 506.6 55.2005Z" fill="#CCCCCC"/>
<path d="M156.555 249.928C156.349 249.325 156.002 248.78 155.543 248.338C155.374 248.181 155.19 248.04 154.995 247.916C153.442 246.88 151.12 246.648 149.644 247.916C149.495 248.044 149.358 248.186 149.233 248.338C148.792 248.88 148.34 249.41 147.876 249.928C147.114 250.797 146.334 251.636 145.518 252.452C145.286 252.678 145.054 252.91 144.816 253.136C144.679 253.273 144.542 253.404 144.405 253.535C143.881 254.035 143.345 254.517 142.804 254.994C142.518 255.25 142.232 255.5 141.941 255.744C141.506 256.107 141.071 256.47 140.631 256.821C140.589 256.851 140.548 256.881 140.506 256.916C140.494 256.922 140.488 256.934 140.476 256.94C140.47 256.94 140.464 256.94 140.458 256.952C140.442 256.958 140.428 256.969 140.417 256.982C140.286 257.071 140.196 257.131 140.131 257.184C140.155 257.172 140.178 257.154 140.202 257.143C140.095 257.226 139.982 257.309 139.875 257.393C138.833 258.161 137.768 258.899 136.678 259.589C133.983 261.314 131.152 262.817 128.213 264.084C128.017 264.161 127.814 264.244 127.612 264.322C119.917 267.474 111.571 268.704 103.294 267.905C102.449 267.84 101.604 267.751 100.758 267.638C99.782 267.495 98.8116 267.322 97.8473 267.126C94.1759 266.393 90.5835 265.309 87.1201 263.887C82.7876 261.903 78.6671 259.486 74.8214 256.672C74.2261 256.25 73.6248 255.827 73.0236 255.416C73.7082 253.738 74.3808 252.059 75.0357 250.368C75.3631 249.553 75.6786 248.737 75.9881 247.916C78.4229 241.588 80.7088 235.2 82.8995 228.789C85.114 222.294 87.2034 215.762 89.1679 209.192C89.3703 208.525 89.5668 207.858 89.7573 207.192C90.7871 203.721 91.7753 200.243 92.7218 196.756C92.8111 196.417 92.9063 196.084 92.9897 195.744C93.2635 194.744 93.5314 193.744 93.7933 192.744C94.3886 190.488 93.0433 187.791 90.674 187.249C89.5333 186.957 88.3235 187.119 87.2997 187.7C86.2759 188.282 85.5178 189.239 85.1854 190.369C84.9294 191.333 84.6735 192.291 84.4115 193.256C83.1555 197.917 81.8339 202.562 80.4469 207.192C80.2445 207.858 80.0421 208.525 79.8397 209.192C76.7799 219.276 73.4204 229.259 69.7614 239.141C69.3209 240.337 68.8744 241.53 68.422 242.719C68.2017 243.302 67.9815 243.885 67.7552 244.469C67.3207 245.618 66.8742 246.767 66.4278 247.916C66.1717 248.588 65.9098 249.261 65.6479 249.928C65.4753 250.35 65.3086 250.773 65.1419 251.19C63.4446 250.58 61.6861 250.157 59.8974 249.928L59.6117 249.892C58.2249 249.725 56.8224 249.737 55.4386 249.928C53.3677 250.169 51.375 250.863 49.6016 251.959C47.8282 253.056 46.3174 254.529 45.1758 256.273C42.3363 260.744 42.372 267.138 46.3545 270.936C50.4561 274.847 56.665 274.817 61.4928 272.37C64.0512 270.986 66.2085 268.964 67.7552 266.501C68.3478 265.608 68.8923 264.684 69.3864 263.732C69.5114 263.816 69.6364 263.899 69.7614 263.988C70.2376 264.322 70.7139 264.661 71.1841 264.994C73.9243 266.98 76.8119 268.753 79.8218 270.299C86.2938 273.516 93.2605 275.623 100.431 276.531C100.592 276.549 100.746 276.573 100.907 276.591C101.699 276.692 102.496 276.769 103.294 276.835C114.737 277.697 126.194 275.356 136.381 270.072C137.244 269.626 138.099 269.158 138.946 268.667C140.262 267.905 141.548 267.096 142.804 266.239C143.488 265.774 144.155 265.304 144.816 264.81C147.703 262.683 150.395 260.302 152.858 257.696C153.793 256.714 154.688 255.7 155.543 254.654C156.352 253.799 156.818 252.676 156.853 251.499C156.848 250.962 156.747 250.43 156.555 249.928ZM57.9806 264.108C58.1056 264.018 58.2306 263.923 58.3496 263.828C58.3139 263.917 58.1413 264.018 57.9806 264.108ZM59.8914 262.185C59.7545 262.34 59.6295 262.494 59.4926 262.649C59.0761 263.115 58.6286 263.553 58.1532 263.959C58.0877 264.018 58.0163 264.078 57.9448 264.131C57.9441 264.131 57.9433 264.131 57.9425 264.132C57.9418 264.132 57.9411 264.132 57.9406 264.133C57.94 264.134 57.9396 264.134 57.9393 264.135C57.939 264.136 57.9389 264.136 57.9389 264.137C57.8529 264.176 57.7694 264.219 57.6888 264.268C57.4329 264.423 57.1709 264.566 56.9031 264.697C56.3786 264.89 55.839 265.039 55.2898 265.143C54.8679 265.174 54.4444 265.178 54.0219 265.155H54.0099C53.7184 265.091 53.4303 265.011 53.1468 264.917C53.0039 264.846 52.867 264.762 52.7301 264.679C52.6765 264.631 52.6288 264.584 52.5991 264.554C52.541 264.501 52.4872 264.443 52.4384 264.381C52.4384 264.381 52.4383 264.38 52.438 264.379C52.4377 264.378 52.4373 264.378 52.4367 264.377C52.4362 264.377 52.4355 264.376 52.4348 264.376C52.434 264.375 52.4333 264.375 52.4325 264.375C52.367 264.256 52.2955 264.137 52.2301 264.018C52.2267 264.015 52.2245 264.011 52.2241 264.006C52.1765 263.857 52.1348 263.703 52.0991 263.548C52.0862 263.276 52.0882 263.004 52.105 262.732C52.1849 262.352 52.2924 261.978 52.4265 261.613C52.547 261.355 52.6842 261.104 52.8373 260.863C52.8492 260.839 52.9087 260.744 52.9742 260.637C52.9801 260.631 52.9801 260.631 52.9801 260.625C53.0694 260.524 53.1587 260.417 53.254 260.321C53.4147 260.143 53.5873 259.988 53.76 259.827C54.0957 259.608 54.4435 259.407 54.8017 259.226C55.37 259.024 55.9532 258.867 56.5459 258.756C57.42 258.686 58.2985 258.694 59.1712 258.78C59.9977 258.923 60.8133 259.124 61.6119 259.381C61.1278 260.32 60.5768 261.223 59.9629 262.084C59.9391 262.119 59.9153 262.155 59.8914 262.185ZM53.2718 260.226C53.2193 260.31 53.1574 260.388 53.0873 260.458C53.1345 260.371 53.197 260.292 53.2718 260.226Z" fill="#151819"/>
<path d="M138.661 189.13C138.607 190.999 138.554 192.869 138.5 194.738C138.387 198.887 138.27 203.038 138.149 207.191C138.024 211.864 137.893 216.535 137.756 221.205C137.691 223.616 137.623 226.026 137.554 228.437C137.369 234.932 137.187 241.425 137.006 247.915C136.988 248.588 136.964 249.255 136.946 249.927C136.857 253.148 136.768 256.368 136.679 259.589C136.577 263.083 136.478 266.578 136.381 270.072C136.31 272.691 136.236 275.313 136.161 277.936C135.625 296.944 135.089 315.951 134.553 334.959C134.531 336.136 134.053 337.258 133.221 338.091C132.388 338.923 131.266 339.401 130.089 339.424C128.908 339.414 127.777 338.941 126.942 338.105C126.107 337.27 125.634 336.14 125.624 334.959C125.922 324.268 126.223 313.576 126.529 302.885C126.797 293.217 127.069 283.55 127.344 273.882C127.434 270.697 127.523 267.51 127.612 264.322C127.749 259.524 127.884 254.725 128.017 249.927C128.035 249.255 128.059 248.588 128.077 247.915C128.089 247.326 128.106 246.743 128.124 246.153C128.386 236.837 128.648 227.519 128.91 218.198C129.017 214.531 129.12 210.862 129.22 207.191C129.339 203.006 129.458 198.824 129.577 194.643C129.63 192.803 129.678 190.97 129.732 189.13C129.754 187.953 130.232 186.831 131.064 185.998C131.897 185.166 133.019 184.688 134.196 184.666C135.377 184.675 136.507 185.148 137.343 185.984C138.178 186.819 138.651 187.949 138.661 189.13Z" fill="#151819"/>
<path d="M383.581 190.369C378.899 208.097 373.303 225.57 366.817 242.72C365.027 247.45 363.195 252.171 361.238 256.835L361.688 255.769C360.814 257.99 359.698 260.109 358.36 262.086C358.269 262.213 358.177 262.34 358.083 262.465C358.545 261.873 358.633 261.756 358.346 262.114C358.195 262.293 358.046 262.473 357.889 262.647C357.473 263.114 357.025 263.552 356.55 263.959C356.431 264.061 356.309 264.161 356.186 264.259L356.745 263.825C356.68 263.978 356.225 264.181 356.083 264.267C355.625 264.544 355.146 264.786 354.652 264.993L355.718 264.543C354.908 264.869 354.063 265.101 353.199 265.234L354.386 265.074C353.538 265.191 352.678 265.2 351.828 265.101L353.015 265.261C352.319 265.165 351.638 264.982 350.988 264.715L352.054 265.165C351.708 265.014 351.374 264.836 351.055 264.632C350.893 264.526 350.397 264.15 351.046 264.646C351.721 265.162 351.133 264.691 350.994 264.554C350.878 264.439 350.774 264.315 350.661 264.199C350.136 263.661 351.254 265.126 350.897 264.496C350.706 264.18 350.532 263.855 350.374 263.522L350.824 264.588C350.619 264.081 350.474 263.551 350.391 263.01L350.55 264.197C350.465 263.524 350.465 262.843 350.549 262.17L350.389 263.357C350.498 262.606 350.697 261.87 350.981 261.166L350.531 262.233C350.729 261.759 350.964 261.302 351.232 260.864C351.356 260.638 351.501 260.425 351.666 260.227C351.695 260.236 350.911 261.127 351.327 260.677C351.436 260.56 351.538 260.436 351.648 260.319C351.824 260.132 352.013 259.961 352.199 259.784C352.821 259.192 351.329 260.359 352.046 259.891C352.566 259.549 353.114 259.25 353.683 258.998L352.616 259.448C353.57 259.057 354.569 258.789 355.59 258.651L354.403 258.81C355.682 258.663 356.974 258.679 358.249 258.856L357.062 258.696C358.677 258.941 360.255 259.385 361.76 260.018L360.694 259.568C363.902 260.945 366.744 262.99 369.58 264.996C372.32 266.98 375.207 268.752 378.215 270.298C384.688 273.516 391.655 275.623 398.826 276.533C409.11 277.792 419.546 276.449 429.175 272.627C438.805 268.804 447.321 262.624 453.941 254.654C454.749 253.798 455.214 252.674 455.249 251.497C455.241 250.315 454.771 249.183 453.941 248.34C452.303 246.837 449.209 246.412 447.627 248.34C446.128 250.171 444.516 251.906 442.801 253.535C442.001 254.295 441.179 255.031 440.336 255.744C439.854 256.151 439.366 256.55 438.871 256.941C438.636 257.126 437.907 257.619 439.027 256.824C438.77 257.006 438.524 257.205 438.271 257.392C434.522 260.156 430.459 262.467 426.167 264.276L427.234 263.826C422.629 265.758 417.792 267.083 412.845 267.769L414.032 267.609C408.943 268.279 403.788 268.271 398.701 267.587L399.888 267.746C394.802 267.048 389.828 265.693 385.091 263.716L386.157 264.166C381.585 262.143 377.247 259.63 373.218 256.67C371.121 255.118 368.909 253.726 366.602 252.507C363.914 251.134 361.004 250.25 358.007 249.894C352.389 249.233 346.663 251.422 343.574 256.276C340.731 260.744 340.768 267.136 344.749 270.935C348.849 274.848 355.058 274.815 359.89 272.367C364.544 270.01 367.339 265.114 369.305 260.496C373.729 250.105 377.645 239.474 381.294 228.789C384.904 218.218 388.178 207.54 391.115 196.754C391.479 195.419 391.838 194.082 392.191 192.743C392.787 190.488 391.44 187.79 389.073 187.251C387.932 186.957 386.721 187.118 385.696 187.7C384.672 188.282 383.913 189.239 383.581 190.369Z" fill="#151819"/>
<path d="M428.128 189.13L426.521 246.155L424.923 302.882L424.019 334.959C424.029 336.14 424.502 337.27 425.337 338.105C426.172 338.94 427.302 339.414 428.483 339.424C429.66 339.401 430.783 338.923 431.615 338.091C432.448 337.258 432.925 336.136 432.948 334.959L434.555 277.934L436.154 221.206L437.058 189.13C437.048 187.949 436.574 186.819 435.739 185.984C434.904 185.149 433.774 184.675 432.593 184.665C431.416 184.688 430.293 185.165 429.461 185.998C428.629 186.83 428.151 187.953 428.128 189.13Z" fill="#151819"/>
<path opacity="0.2" d="M273.591 319.038H274.977V255.912H307.319V254.529H274.977V227.893H299.953C299.587 227.428 299.21 226.968 298.823 226.514H274.977V208.921C274.519 208.726 274.057 208.537 273.591 208.36V226.514H246.415V203.973C245.949 203.994 245.491 204.026 245.028 204.066V226.514H223.348V209.696C222.882 209.903 222.424 210.119 221.969 210.347V226.514H203.743V227.893H221.969V254.529H203.743V255.912H221.969V319.038H223.348V255.912C226.195 255.911 229.015 256.472 231.645 257.561C234.276 258.651 236.666 260.248 238.68 262.261C240.693 264.274 242.29 266.664 243.379 269.295C244.469 271.926 245.029 274.745 245.028 277.593V319.038H246.415V255.912H273.591V319.038ZM223.348 254.529V227.893H245.028V254.529H223.348ZM246.415 254.529V227.893H246.959C250.456 227.893 253.92 228.583 257.151 229.921C260.382 231.26 263.318 233.222 265.791 235.695C268.264 238.169 270.226 241.105 271.564 244.337C272.903 247.568 273.591 251.032 273.591 254.529H246.415Z" fill="black"/>
<path d="M265.125 300.11C263.379 307.896 259.199 314.923 253.189 320.172C252.749 320.553 252.308 320.922 251.85 321.285C250.737 321.386 249.631 321.489 248.534 321.594C247.623 321.678 246.724 321.767 245.831 321.85L245.671 321.868L245.558 320.892L245.105 316.939C243.35 314.074 242.262 310.85 241.922 307.508C241.582 304.165 241.999 300.788 243.141 297.628C244.712 293.39 247.558 289.645 250.356 285.931C254.219 280.799 257.975 275.727 258.112 269.471C260.013 271.903 261.594 274.57 262.815 277.406C261.663 277.948 260.627 278.711 259.767 279.65C259.523 279.918 259.279 280.293 259.446 280.615C259.589 280.888 259.946 280.954 260.255 280.99C260.999 281.067 261.75 281.144 262.494 281.222C263.089 281.287 263.684 281.347 264.28 281.412C265 283.776 265.488 286.204 265.738 288.663C266.139 292.487 265.932 296.351 265.125 300.11Z" fill="#3F3D56"/>
<path d="M284.888 284.508C281.376 287.062 279.322 290.735 277.727 294.783C276.092 295.306 274.621 296.245 273.459 297.509C273.215 297.777 272.97 298.152 273.137 298.473C273.28 298.747 273.637 298.813 273.947 298.848C274.691 298.926 275.441 299.003 276.185 299.081C274.59 303.867 273.125 308.819 270.304 312.862C268.427 315.53 265.981 317.749 263.142 319.356C262.368 319.797 261.569 320.193 260.749 320.541C257.725 320.773 254.759 321.021 251.85 321.285C250.736 321.386 249.631 321.489 248.534 321.594C247.623 321.678 246.724 321.767 245.831 321.85C245.825 321.523 245.825 321.196 245.831 320.868C246.019 312.146 249.228 303.76 254.909 297.14C255.177 296.83 255.451 296.527 255.731 296.223C258.609 293.149 261.994 290.592 265.738 288.663C271.637 285.596 278.248 284.161 284.888 284.508Z" fill="#0C3C6E"/>
<path d="M249.563 318.541L248.879 320.565L248.534 321.595C247.623 321.678 246.724 321.767 245.831 321.85L245.67 321.868C244.682 321.97 243.7 322.071 242.718 322.172C242.462 321.874 242.206 321.571 241.956 321.261C235.742 313.737 232.759 304.059 233.66 294.342C234.56 284.625 239.269 275.66 246.76 269.405C245.974 273.519 246.89 277.46 248.397 281.371C248.236 281.436 248.081 281.502 247.932 281.573C246.78 282.116 245.745 282.878 244.884 283.817C244.64 284.085 244.396 284.46 244.563 284.782C244.706 285.056 245.063 285.121 245.373 285.157C246.117 285.234 246.867 285.311 247.611 285.389C248.206 285.454 248.801 285.514 249.397 285.579C249.676 285.609 249.956 285.639 250.236 285.669C250.278 285.758 250.313 285.841 250.355 285.931C252.052 289.609 253.879 293.306 254.909 297.14C255.167 298.102 255.37 299.078 255.516 300.063C255.975 303.392 255.678 306.782 254.647 309.981C253.617 313.179 251.879 316.105 249.563 318.541Z" fill="#0C3C6E"/>
<path d="M309.485 232.2C304.36 222.204 296.42 213.793 287.082 207.612C277.715 201.44 266.965 197.681 255.792 196.671C254.328 196.538 252.86 196.46 251.388 196.437C249.649 196.411 223.489 203.957 214.725 210.118C205.967 216.205 198.762 224.265 193.692 233.648C188.631 243.083 186.141 253.684 186.474 264.385C186.908 275.151 189.908 285.657 195.226 295.028C200.471 304.369 207.919 312.287 216.921 318.093C226.052 323.919 235.223 339.367 246.004 339.912C256.865 340.461 269.252 325.89 279.159 321.465C289.065 317.004 297.629 310.025 303.997 301.223C310.186 292.596 314.19 282.598 315.665 272.084C317.197 261.32 316.483 250.218 312.806 239.929C311.863 237.285 310.754 234.704 309.485 232.2C308.425 230.113 305.32 229.345 303.376 230.598C302.375 231.215 301.649 232.194 301.351 233.332C301.053 234.469 301.204 235.678 301.774 236.707C302.396 237.932 302.975 239.178 303.51 240.444L303.06 239.377C305.084 244.244 306.46 249.355 307.153 254.58L306.994 253.393C307.731 259.062 307.718 264.803 306.954 270.468L307.114 269.281C306.342 274.945 304.83 280.484 302.617 285.755L303.067 284.688C301.928 287.378 300.601 289.983 299.095 292.486C298.332 293.75 297.522 294.985 296.666 296.189C296.29 296.718 295.902 297.238 295.512 297.756C295.002 298.432 296.206 296.873 295.68 297.536C295.59 297.649 295.501 297.762 295.411 297.875C295.141 298.213 294.866 298.548 294.588 298.879C292.732 301.094 290.707 303.16 288.53 305.061C287.988 305.534 287.437 305.996 286.877 306.448C286.598 306.674 286.322 306.908 286.031 307.118C286.042 307.11 286.971 306.404 286.421 306.814C286.248 306.943 286.077 307.073 285.904 307.202C284.749 308.057 283.563 308.869 282.347 309.638C279.547 311.402 276.61 312.937 273.563 314.229L274.63 313.779C269.374 315.992 263.851 317.503 258.202 318.275L259.388 318.115C253.742 318.878 248.019 318.888 242.37 318.145L243.556 318.305C238.422 317.615 233.4 316.257 228.617 314.266L229.684 314.716C226.914 313.546 224.243 312.155 221.698 310.554C220.438 309.761 219.211 308.918 218.016 308.026C217.846 307.899 217.677 307.77 217.507 307.642C216.962 307.23 217.899 307.945 217.906 307.95C217.59 307.723 217.285 307.479 216.993 307.221C216.416 306.751 215.848 306.271 215.289 305.779C213.054 303.81 210.966 301.679 209.043 299.404C208.561 298.835 208.09 298.257 207.63 297.671C207.43 297.418 207.066 296.903 207.87 297.986C207.764 297.844 207.655 297.704 207.548 297.562C207.291 297.222 207.038 296.879 206.788 296.534C205.914 295.324 205.083 294.085 204.295 292.815C202.515 289.943 200.962 286.936 199.649 283.822L200.099 284.888C197.951 279.777 196.482 274.406 195.729 268.912L195.889 270.099C195.21 265.035 195.2 259.904 195.86 254.838L195.7 256.025C196.377 251.119 197.697 246.324 199.626 241.762L199.176 242.829C200.39 239.974 201.822 237.216 203.459 234.58C204.279 233.262 205.148 231.975 206.065 230.72C206.274 230.435 206.485 230.152 206.698 229.87C206.891 229.615 207.421 228.981 206.516 230.101C206.605 229.992 206.69 229.879 206.778 229.768C207.281 229.13 207.797 228.502 208.325 227.884C210.324 225.544 212.489 223.351 214.804 221.323C215.389 220.811 215.983 220.309 216.587 219.818C216.861 219.595 217.137 219.374 217.415 219.155C217.526 219.068 217.638 218.982 217.749 218.894C216.56 219.84 217.418 219.152 217.688 218.949C218.932 218.017 220.209 217.132 221.519 216.294C224.432 214.431 227.496 212.816 230.679 211.467L229.612 211.917C234.232 209.977 254.698 205.399 258.421 205.899L257.234 205.739C262.705 206.503 268.053 207.981 273.14 210.134L272.074 209.684C274.652 210.779 277.157 212.037 279.574 213.452C280.782 214.16 281.966 214.906 283.127 215.691C283.676 216.063 284.219 216.443 284.757 216.831C285.025 217.026 285.292 217.222 285.558 217.42C285.706 217.53 285.852 217.642 285.999 217.752C286.618 218.216 285.147 217.081 285.796 217.594C287.966 219.299 290.028 221.139 291.968 223.102C292.921 224.072 293.841 225.073 294.728 226.105C295.183 226.635 295.629 227.172 296.065 227.717C296.282 227.988 297.021 228.968 296.116 227.767C296.337 228.061 296.56 228.352 296.779 228.648C298.66 231.194 300.331 233.889 301.774 236.707C302.842 238.789 305.933 239.565 307.883 238.309C308.885 237.692 309.61 236.713 309.909 235.575C310.207 234.438 310.055 233.229 309.485 232.2Z" fill="#151819"/>
<path d="M257.462 305.061C257.001 305.082 256.545 304.961 256.155 304.714C255.765 304.467 255.461 304.107 255.283 303.681C255.105 303.255 255.062 302.785 255.16 302.334C255.258 301.884 255.493 301.474 255.831 301.161C255.888 300.935 255.929 300.773 255.986 300.548C255.965 300.499 255.945 300.45 255.924 300.401C253.853 295.461 240.634 309.231 240.063 313.873C239.811 315.925 239.917 318.005 240.377 320.021C236.095 310.681 233.871 300.529 233.857 290.255C233.856 287.676 233.999 285.1 234.286 282.538C234.523 280.437 234.852 278.352 235.272 276.281C237.567 265.046 242.495 254.515 249.65 245.554C253.742 245.782 257.328 245.159 257.674 237.229C257.736 235.818 258.782 234.597 259.012 233.207C258.622 233.258 258.225 233.29 257.834 233.316C257.712 233.322 257.584 233.329 257.463 233.335L257.417 233.337C256.987 233.356 256.562 233.251 256.191 233.034C255.82 232.817 255.52 232.497 255.326 232.113C255.133 231.73 255.054 231.298 255.1 230.871C255.147 230.444 255.315 230.039 255.586 229.705C255.755 229.497 255.923 229.29 256.092 229.083C256.348 228.762 256.611 228.449 256.867 228.128C256.897 228.098 256.924 228.066 256.95 228.032C257.245 227.667 257.54 227.309 257.834 226.944C257.296 226.109 256.573 225.41 255.721 224.901C252.769 223.172 248.695 224.369 246.563 227.04C244.424 229.71 244.021 233.457 244.763 236.793C245.494 239.632 246.702 242.326 248.337 244.76C248.177 244.965 248.01 245.163 247.85 245.368C244.923 249.132 242.373 253.173 240.234 257.434C240.839 252.708 233.441 235.641 230.58 232.026C227.143 227.684 220.096 229.579 219.491 235.084C219.485 235.137 219.479 235.19 219.474 235.243C219.898 235.483 220.315 235.738 220.722 236.007C221.233 236.348 221.629 236.837 221.858 237.407C222.087 237.978 222.139 238.604 222.006 239.205C221.873 239.805 221.562 240.351 221.113 240.772C220.664 241.192 220.099 241.467 219.491 241.561L219.429 241.571C213.74 249.693 231.976 270.832 236.541 266.086C234.392 272.174 233.044 278.516 232.532 284.952C232.241 288.749 232.258 292.563 232.583 296.358L232.564 296.223C231.549 287.959 214.15 275.672 209.07 276.696C206.143 277.285 203.26 277.151 203.704 280.104C203.711 280.151 203.719 280.198 203.726 280.245C204.514 280.566 205.282 280.936 206.025 281.353C206.45 281.593 206.866 281.847 207.273 282.116C207.784 282.458 208.18 282.946 208.41 283.517C208.639 284.087 208.69 284.714 208.557 285.314C208.424 285.915 208.113 286.461 207.664 286.881C207.215 287.302 206.65 287.577 206.042 287.671L205.98 287.68C205.935 287.687 205.897 287.693 205.852 287.7C203.263 296.609 222.465 310.987 234.139 306.412H234.145C235.302 311.44 236.978 316.333 239.147 321.014H257.014C257.078 320.815 257.136 320.61 257.194 320.412C255.54 320.516 253.88 320.417 252.25 320.117C253.575 318.49 254.901 316.851 256.227 315.224C256.256 315.194 256.284 315.162 256.31 315.128C256.982 314.296 257.661 313.47 258.334 312.637L258.334 312.636C258.37 310.084 258.077 307.538 257.463 305.061L257.462 305.061ZM237.002 264.811L237.011 264.798L237.002 264.824V264.811ZM233.044 300.488L232.89 300.143C232.897 299.893 232.897 299.643 232.89 299.387C232.89 299.316 232.877 299.246 232.877 299.176C232.935 299.618 232.986 300.059 233.05 300.501L233.044 300.488Z" fill="#3F3D56"/>
<path d="M56.701 267.882C60.3175 267.882 63.2493 264.95 63.2493 261.333C63.2493 257.717 60.3175 254.785 56.701 254.785C53.0846 254.785 50.1528 257.717 50.1528 261.333C50.1528 264.95 53.0846 267.882 56.701 267.882Z" fill="#3F3D56"/>
<path d="M135.28 339.317C138.896 339.317 141.828 336.385 141.828 332.768C141.828 329.152 138.896 326.22 135.28 326.22C131.663 326.22 128.731 329.152 128.731 332.768C128.731 336.385 131.663 339.317 135.28 339.317Z" fill="#3F3D56"/>
<path d="M433.521 339.317C437.137 339.317 440.069 336.385 440.069 332.768C440.069 329.152 437.137 326.22 433.521 326.22C429.904 326.22 426.973 329.152 426.973 332.768C426.973 336.385 429.904 339.317 433.521 339.317Z" fill="#3F3D56"/>
<path d="M449.594 255.976C453.21 255.976 456.142 253.044 456.142 249.428C456.142 245.811 453.21 242.879 449.594 242.879C445.977 242.879 443.045 245.811 443.045 249.428C443.045 253.044 445.977 255.976 449.594 255.976Z" fill="#3F3D56"/>
<path d="M430.544 195.256C434.161 195.256 437.093 192.324 437.093 188.707C437.093 185.091 434.161 182.159 430.544 182.159C426.928 182.159 423.996 185.091 423.996 188.707C423.996 192.324 426.928 195.256 430.544 195.256Z" fill="#3F3D56"/>
<path d="M157.305 249.427C157.301 251.1 156.654 252.707 155.499 253.916C154.343 255.125 152.766 255.843 151.095 255.922C149.425 256.002 147.787 255.435 146.523 254.341C145.258 253.246 144.462 251.707 144.3 250.043C144.138 248.378 144.623 246.715 145.653 245.397C146.683 244.079 148.181 243.208 149.836 242.964C151.49 242.72 153.176 243.121 154.543 244.085C155.91 245.048 156.854 246.501 157.18 248.141C157.264 248.565 157.306 248.996 157.305 249.427Z" fill="#3F3D56"/>
<path d="M288.27 214.305C291.886 214.305 294.818 211.374 294.818 207.757C294.818 204.141 291.886 201.209 288.27 201.209C284.653 201.209 281.722 204.141 281.722 207.757C281.722 211.374 284.653 214.305 288.27 214.305Z" fill="#3F3D56"/>
<path d="M223.382 207.757C223.378 209.429 222.732 211.037 221.576 212.246C220.42 213.455 218.843 214.173 217.173 214.252C215.502 214.331 213.865 213.765 212.6 212.67C211.335 211.576 210.539 210.037 210.377 208.372C210.215 206.707 210.7 205.044 211.73 203.726C212.761 202.409 214.258 201.538 215.913 201.294C217.567 201.049 219.253 201.451 220.62 202.414C221.987 203.378 222.931 204.83 223.257 206.471C223.341 206.894 223.383 207.325 223.382 207.757Z" fill="#3F3D56"/>
<path d="M138.851 188.708C138.847 190.38 138.2 191.987 137.044 193.196C135.889 194.405 134.312 195.124 132.641 195.203C130.971 195.282 129.333 194.716 128.068 193.621C126.804 192.527 126.008 190.988 125.846 189.323C125.684 187.658 126.169 185.995 127.199 184.677C128.229 183.36 129.727 182.488 131.382 182.244C133.036 182 134.722 182.401 136.089 183.365C137.456 184.329 138.4 185.781 138.726 187.422C138.81 187.845 138.852 188.276 138.851 188.708Z" fill="#3F3D56"/>
<path d="M356.728 270.262C360.345 270.262 363.277 267.331 363.277 263.714C363.277 260.098 360.345 257.166 356.728 257.166C353.112 257.166 350.18 260.098 350.18 263.714C350.18 267.331 353.112 270.262 356.728 270.262Z" fill="#3F3D56"/>
<path d="M253.742 210.733C259.003 210.733 263.267 206.469 263.267 201.209C263.267 195.948 259.003 191.684 253.742 191.684C248.482 191.684 244.218 195.948 244.218 201.209C244.218 206.469 248.482 210.733 253.742 210.733Z" fill="#3F3D56"/>
<path d="M511.321 339.817L0.708799 340C0.615718 340 0.523545 339.982 0.437549 339.946C0.351553 339.91 0.27342 339.858 0.207602 339.792C0.141784 339.727 0.0895672 339.648 0.0539465 339.562C0.0183259 339.476 0 339.384 0 339.291C0 339.198 0.0183259 339.106 0.0539465 339.02C0.0895672 338.934 0.141784 338.856 0.207602 338.79C0.27342 338.724 0.351553 338.672 0.437549 338.636C0.523545 338.601 0.615718 338.582 0.708799 338.582L511.321 338.399C511.508 338.4 511.688 338.475 511.821 338.608C511.953 338.741 512.027 338.921 512.027 339.108C512.027 339.296 511.953 339.476 511.821 339.609C511.688 339.742 511.508 339.816 511.321 339.817Z" fill="#CACACA"/>
</svg>
