<svg width="344" height="229" viewBox="0 0 344 229" fill="none" xmlns="http://www.w3.org/2000/svg">
<path d="M174.268 64.201C171.201 59.128 167.566 53.7115 161.874 52.055C155.282 50.1367 148.511 53.9475 142.767 57.708C125.59 68.9544 109.048 81.1423 93.2173 94.2158L93.2346 94.4127C105.56 93.5628 117.885 92.7128 130.21 91.8629C139.114 91.2488 148.325 90.55 156.194 86.3375C159.181 84.739 162.091 82.6037 165.475 82.4549C169.679 82.2701 173.345 85.2062 176.226 88.2738C193.266 106.419 198.197 134.169 217.315 150.111C205.26 120.381 190.866 91.6545 174.268 64.201Z" fill="#F2F2F2"/>
<path d="M279.013 218.11C277.129 215.73 276.359 215.173 274.5 212.772C259.365 193.197 245.139 172.961 231.823 152.064C222.778 137.871 214.182 123.406 206.034 108.668C202.155 101.662 198.382 94.6004 194.716 87.484C191.871 81.9661 189.089 76.4152 186.371 70.8313C185.594 69.2364 184.838 67.6342 184.087 66.0283C182.316 62.252 180.578 58.4573 178.712 54.7322C176.586 50.4866 173.997 46.0356 170.092 43.1831C168.315 41.8317 166.19 41.014 163.966 40.8256C160.787 40.6203 157.854 41.9329 155.097 43.3664C134.924 53.8853 116.039 67.0733 98.9573 82.0798C81.8318 97.12 66.5245 114.112 53.3474 132.709C52.9442 133.284 51.9909 132.734 52.3978 132.155C54.0001 129.889 55.6341 127.648 57.2998 125.431C78.0122 97.8841 103.409 74.1952 132.328 55.4472C137.194 52.2941 142.151 49.2889 147.199 46.4315C149.744 44.9906 152.299 43.5681 154.899 42.2335C157.447 40.9246 160.153 39.7477 163.064 39.7037C172.97 39.5497 178.1 50.7689 181.623 58.3179C182.73 60.6937 183.851 63.0622 184.985 65.4234C189.271 74.3877 193.722 83.2701 198.338 92.0706C201.187 97.5042 204.098 102.906 207.071 108.276C216.325 124.998 226.161 141.382 236.578 157.428C250.379 178.682 264.069 197.457 279.79 217.332C280.223 217.882 279.45 218.667 279.013 218.11Z" fill="#E4E4E4"/>
<path d="M97.978 76.5396C97.4025 75.898 96.8305 75.2564 96.2512 74.6148C91.6829 69.5625 86.7811 64.5689 80.5077 61.6724C77.5166 60.2478 74.2513 59.4909 70.9384 59.4543C67.5141 59.4653 64.1668 60.3635 61.0027 61.6211C59.5068 62.2187 58.0438 62.897 56.6031 63.6193C54.9568 64.4479 53.3398 65.3315 51.7304 66.2224C48.7092 67.8943 45.7273 69.6395 42.7845 71.458C36.9292 75.0767 31.2573 78.9716 25.7687 83.1427C22.9235 85.3059 20.1371 87.54 17.4093 89.8449C14.8722 91.9861 12.3864 94.1847 9.95194 96.4407C9.43134 96.921 8.65402 96.1438 9.17462 95.6635C9.81623 95.0658 10.4652 94.4719 11.1142 93.8853C12.9473 92.2281 14.8099 90.6026 16.7018 89.009C20.1517 86.0979 23.691 83.2992 27.3196 80.613C32.9622 76.4333 38.7991 72.5371 44.8302 68.9245C47.844 67.1207 50.8993 65.3926 53.9961 63.7403C54.9312 63.2417 55.8771 62.754 56.834 62.2921C59.0052 61.1969 61.2612 60.2785 63.5801 59.5459C66.8649 58.4833 70.3402 58.1419 73.769 58.545C77.0796 59.0266 80.2692 60.13 83.1696 61.7971C89.3291 65.2398 94.1063 70.5634 98.7553 75.7587C99.2247 76.2866 98.451 77.0676 97.978 76.5396Z" fill="#E4E4E4"/>
<path d="M224.184 128.895L238.943 123.496L246.271 120.816C248.658 119.943 251.039 118.949 253.506 118.324C255.65 117.712 257.927 117.741 260.055 118.408C261.952 119.11 263.689 120.187 265.162 121.574C266.667 122.96 268.068 124.455 269.352 126.048C270.947 127.965 272.519 129.903 274.098 131.834C280.615 139.803 287.089 147.808 293.52 155.847C299.952 163.885 306.34 171.958 312.685 180.066C319.046 188.192 325.363 196.353 331.637 204.548C332.405 205.552 333.173 206.556 333.94 207.561C334.364 208.117 335.32 207.569 334.89 207.006C328.57 198.729 322.207 190.486 315.799 182.276C309.375 174.047 302.908 165.853 296.395 157.693C289.883 149.534 283.327 141.41 276.727 133.322C275.082 131.307 273.435 129.294 271.786 127.283C270.394 125.587 269.018 123.873 267.492 122.295C264.69 119.397 261.19 116.836 257 116.767C254.536 116.726 252.152 117.508 249.863 118.336C247.396 119.228 244.934 120.138 242.47 121.039L227.607 126.475L223.891 127.834C223.232 128.075 223.517 129.139 224.184 128.895Z" fill="#E4E4E4"/>
<path d="M78.5654 68.0301C71.0648 64.1753 61.4594 64.9303 54.5669 69.7464C67.7137 72.0145 80.7167 75.0494 93.5093 78.8353C88.1971 75.7222 84.0416 70.8447 78.5654 68.0301Z" fill="#F2F2F2"/>
<path d="M54.4933 69.7329L53.0493 70.9066C53.5377 70.4958 54.0455 70.1107 54.5671 69.7462C54.5425 69.7419 54.5179 69.7372 54.4933 69.7329Z" fill="#F2F2F2"/>
<path d="M264.607 128.949C263.154 127.18 261.583 125.328 259.41 124.61L257.381 124.69C272.826 151.981 293.685 175.829 318.679 194.768C300.655 172.828 282.631 150.888 264.607 128.949Z" fill="#F2F2F2"/>
<path d="M138.439 114.359C139.378 117.771 141.493 120.74 144.411 122.742C145.539 123.51 146.873 124.246 147.259 125.555C147.462 126.389 147.337 127.27 146.91 128.015C146.483 128.75 145.964 129.428 145.365 130.031L145.311 130.236C142.512 128.577 139.849 126.479 138.303 123.616C136.757 120.754 136.541 117.002 138.439 114.359Z" fill="#F2F2F2"/>
<path d="M231.625 195.547C232.564 198.958 234.679 201.927 237.597 203.929C238.725 204.697 240.059 205.434 240.445 206.743C240.648 207.577 240.523 208.457 240.096 209.202C239.669 209.937 239.15 210.615 238.551 211.218L238.497 211.423C235.698 209.764 233.035 207.666 231.489 204.804C229.943 201.941 229.727 198.189 231.625 195.547Z" fill="#F2F2F2"/>
<path d="M45.653 189.948C46.592 193.359 48.7072 196.328 51.6246 198.33C52.7525 199.098 54.0869 199.835 54.4728 201.143C54.6758 201.978 54.5507 202.858 54.1234 203.603C53.6969 204.338 53.1779 205.016 52.5791 205.619L52.5245 205.824C49.7255 204.165 47.0627 202.067 45.5166 199.205C43.9705 196.342 43.7546 192.59 45.653 189.948Z" fill="#F2F2F2"/>
<path d="M259.661 40.7939C270.926 40.7939 280.058 31.6619 280.058 20.397C280.058 9.13203 270.926 0 259.661 0C248.396 0 239.264 9.13203 239.264 20.397C239.264 31.6619 248.396 40.7939 259.661 40.7939Z" fill="#16477A"/>
<path d="M296.47 4.74736C286.584 3.41118 275.299 8.75424 272.737 18.3947C272.091 16.6807 270.917 15.2162 269.385 14.213C267.852 13.2097 266.04 12.7197 264.211 12.8135C262.382 12.9074 260.63 13.5803 259.208 14.7352C257.786 15.89 256.769 17.4669 256.302 19.2381L257.433 20.0486C278.617 24.6297 300.546 24.5305 321.687 19.7581C314.811 12.5316 306.355 6.08351 296.47 4.74736Z" fill="#F0F0F0"/>
<path d="M254.076 31.9432C244.191 30.607 232.905 35.95 230.343 45.5905C229.697 43.8765 228.524 42.412 226.991 41.4088C225.459 40.4055 223.647 39.9155 221.818 40.0093C219.988 40.1032 218.236 40.7761 216.815 41.931C215.393 43.0858 214.375 44.6627 213.908 46.4339L215.04 47.2444C236.224 51.8255 258.152 51.7263 279.294 46.9539C272.418 39.7274 263.961 33.2793 254.076 31.9432Z" fill="#F0F0F0"/>
<path d="M340.354 37.0856C340.313 37.0857 340.272 37.0794 340.233 37.0669C234.486 3.62457 141.285 7.99774 81.7195 17.5553C73.6133 18.8555 65.4854 20.3572 57.5616 22.0191C55.5386 22.4429 53.4399 22.8971 51.3238 23.3701C48.7966 23.9329 46.3031 24.5125 43.912 25.0921C42.8794 25.3366 41.8669 25.583 40.8746 25.8314C39.3715 26.2025 37.8463 26.5891 36.2114 27.014C34.3845 27.4851 32.5284 27.9791 30.6933 28.4826C30.6866 28.4849 30.6797 28.4869 30.6728 28.4884L30.673 28.4888C28.6002 29.0547 26.5384 29.6371 24.5446 30.2187C23.4655 30.5303 22.4234 30.8377 21.4253 31.1412C21.3138 31.172 21.215 31.2017 21.1148 31.2322L20.9004 31.2974C20.7762 31.3353 20.6536 31.3724 20.5309 31.4075L20.5231 31.4099L20.5233 31.4103L20.1987 31.5111C19.8117 31.6283 19.434 31.7427 19.0626 31.8567C9.24608 34.8828 3.84962 37.0356 3.79631 37.0567C3.74756 37.0763 3.69544 37.086 3.64292 37.0854C3.5904 37.0848 3.53851 37.0739 3.49022 37.0532C3.44193 37.0326 3.39818 37.0026 3.36147 36.965C3.32476 36.9275 3.29581 36.883 3.27627 36.8343C3.25673 36.7855 3.24698 36.7334 3.24758 36.6809C3.24819 36.6284 3.25913 36.5765 3.27978 36.5282C3.30044 36.4799 3.3304 36.4362 3.36796 36.3995C3.40552 36.3628 3.44994 36.3338 3.4987 36.3143C3.5524 36.2932 8.97523 34.1294 18.8275 31.092C19.2003 30.9776 19.5789 30.8631 19.9671 30.7456L20.2687 30.6518C20.279 30.6479 20.2894 30.6448 20.2999 30.6417C20.422 30.6069 20.5438 30.5698 20.6676 30.5323L20.8824 30.4671C20.9895 30.4347 21.0949 30.4026 21.2029 30.373C22.1942 30.0714 23.2397 29.7633 24.3216 29.4504C26.3162 28.8685 28.38 28.2862 30.4543 27.7194C30.4607 27.7171 30.4673 27.7155 30.4738 27.7136C32.3153 27.2086 34.1783 26.7122 36.0111 26.2396C37.6485 25.8143 39.1766 25.4268 40.6822 25.055C41.6788 24.807 42.6932 24.56 43.7255 24.3141C46.1193 23.7337 48.618 23.1533 51.1496 22.5893C53.269 22.116 55.3713 21.6606 57.3975 21.2364C65.3336 19.5718 73.4742 18.0677 81.5927 16.7656C141.243 7.19436 234.578 2.81413 340.474 36.3045C340.565 36.3332 340.643 36.3936 340.693 36.4747C340.744 36.5558 340.763 36.6522 340.749 36.7466C340.734 36.841 340.686 36.9271 340.614 36.9892C340.541 37.0514 340.449 37.0856 340.354 37.0856Z" fill="#CCCCCC"/>
<path d="M105.18 167.911C105.041 167.506 104.808 167.14 104.5 166.843C104.386 166.738 104.263 166.643 104.132 166.559C103.088 165.863 101.529 165.707 100.537 166.559C100.437 166.646 100.344 166.741 100.261 166.843C99.9648 167.207 99.6608 167.563 99.3489 167.911C98.8369 168.495 98.313 169.059 97.7651 169.607C97.6091 169.759 97.4532 169.915 97.2932 170.067C97.2012 170.159 97.1092 170.247 97.0172 170.335C96.6653 170.671 96.3053 170.995 95.9414 171.314C95.7494 171.486 95.5574 171.654 95.3615 171.818C95.0695 172.062 94.7775 172.306 94.4816 172.542C94.4536 172.562 94.4256 172.582 94.3976 172.606C94.3896 172.61 94.3856 172.618 94.3776 172.622C94.3736 172.622 94.3696 172.622 94.3656 172.63C94.3548 172.635 94.3452 172.641 94.3376 172.65C94.2496 172.71 94.1896 172.75 94.1456 172.786C94.1616 172.778 94.1776 172.766 94.1936 172.758C94.1217 172.814 94.0457 172.87 93.9737 172.926C93.2738 173.442 92.5579 173.938 91.826 174.402C90.0152 175.561 88.1132 176.571 86.1388 177.422C86.0069 177.474 85.8709 177.53 85.7349 177.582C80.5655 179.699 74.9579 180.526 69.3973 179.989C68.8294 179.945 68.2615 179.885 67.6936 179.809C67.0377 179.713 66.3858 179.597 65.7379 179.465C63.2713 178.973 60.8578 178.245 58.5309 177.29C55.6202 175.957 52.8519 174.333 50.2682 172.442C49.8682 172.158 49.4643 171.874 49.0603 171.598C49.5203 170.471 49.9722 169.343 50.4121 168.207C50.6321 167.659 50.8441 167.111 51.0521 166.559C52.6878 162.308 54.2236 158.016 55.6954 153.709C57.1831 149.346 58.5869 144.957 59.9067 140.543C60.0427 140.095 60.1747 139.647 60.3027 139.199C60.9946 136.868 61.6585 134.531 62.2944 132.188C62.3544 131.96 62.4184 131.736 62.4744 131.508C62.6583 130.836 62.8383 130.165 63.0143 129.493C63.4142 127.977 62.5103 126.165 60.9186 125.801C60.1522 125.605 59.3395 125.713 58.6516 126.104C57.9637 126.495 57.4545 127.138 57.2311 127.897C57.0592 128.545 56.8872 129.189 56.7112 129.837C55.8673 132.968 54.9795 136.089 54.0476 139.199C53.9116 139.647 53.7757 140.095 53.6397 140.543C51.584 147.318 49.327 154.025 46.8687 160.664C46.5727 161.468 46.2728 162.269 45.9688 163.068C45.8208 163.46 45.6728 163.852 45.5209 164.244C45.2289 165.015 44.929 165.787 44.629 166.559C44.457 167.011 44.281 167.463 44.1051 167.911C43.9891 168.195 43.8771 168.479 43.7651 168.759C42.6248 168.349 41.4434 168.065 40.2417 167.911L40.0497 167.887C39.118 167.775 38.1757 167.783 37.2461 167.911C35.8547 168.073 34.516 168.539 33.3246 169.276C32.1331 170.013 31.1181 171.002 30.3511 172.174C28.4434 175.178 28.4674 179.473 31.143 182.025C33.8986 184.652 38.07 184.632 41.3135 182.989C43.0324 182.059 44.4817 180.7 45.5209 179.045C45.919 178.445 46.2848 177.825 46.6167 177.186C46.7007 177.242 46.7847 177.298 46.8687 177.358C47.1886 177.582 47.5086 177.809 47.8245 178.033C49.6655 179.367 51.6055 180.558 53.6277 181.597C57.9758 183.759 62.6563 185.174 67.4736 185.784C67.5816 185.796 67.6856 185.812 67.7936 185.824C68.3255 185.892 68.8614 185.944 69.3973 185.988C77.085 186.568 84.7822 184.994 91.626 181.445C92.2059 181.145 92.7805 180.83 93.3498 180.501C94.2336 179.989 95.0975 179.445 95.9414 178.869C96.4013 178.557 96.8492 178.241 97.2932 177.909C99.2331 176.481 101.041 174.881 102.696 173.13C103.324 172.47 103.925 171.789 104.5 171.086C105.043 170.512 105.357 169.757 105.38 168.967C105.377 168.606 105.309 168.248 105.18 167.911ZM38.9539 177.438C39.0378 177.378 39.1218 177.314 39.2018 177.25C39.1778 177.31 39.0618 177.378 38.9539 177.438ZM40.2377 176.146C40.1457 176.25 40.0617 176.354 39.9697 176.458C39.6899 176.771 39.3892 177.065 39.0698 177.338C39.0258 177.378 38.9779 177.418 38.9299 177.454C38.9293 177.454 38.9288 177.454 38.9283 177.454C38.9278 177.454 38.9274 177.454 38.927 177.455C38.9266 177.455 38.9263 177.456 38.9261 177.456C38.9259 177.457 38.9258 177.457 38.9259 177.458C38.8681 177.483 38.812 177.513 38.7579 177.546C38.5859 177.65 38.4099 177.746 38.23 177.833C37.8776 177.963 37.5151 178.064 37.1461 178.133C36.8626 178.154 36.5781 178.157 36.2943 178.141H36.2862C36.0904 178.098 35.8968 178.045 35.7063 177.981C35.6104 177.933 35.5184 177.878 35.4264 177.822C35.3904 177.79 35.3584 177.758 35.3384 177.738C35.2993 177.702 35.2632 177.663 35.2304 177.622C35.2304 177.621 35.2303 177.62 35.2301 177.62C35.2299 177.619 35.2297 177.619 35.2293 177.619C35.2289 177.618 35.2285 177.618 35.228 177.618C35.2275 177.618 35.227 177.618 35.2264 177.618C35.1824 177.538 35.1344 177.458 35.0905 177.378C35.0882 177.375 35.0867 177.373 35.0865 177.37C35.0545 177.27 35.0265 177.166 35.0025 177.062C34.9938 176.879 34.9951 176.696 35.0065 176.514C35.0601 176.258 35.1323 176.007 35.2224 175.762C35.3034 175.588 35.3956 175.42 35.4984 175.258C35.5064 175.242 35.5464 175.178 35.5904 175.106C35.5944 175.102 35.5944 175.102 35.5944 175.098C35.6544 175.03 35.7144 174.958 35.7784 174.894C35.8863 174.774 36.0023 174.67 36.1183 174.562C36.3439 174.414 36.5775 174.279 36.8182 174.158C37.2 174.022 37.5918 173.917 37.99 173.842C38.5773 173.795 39.1675 173.801 39.7538 173.858C40.3091 173.954 40.857 174.089 41.3935 174.262C41.0683 174.893 40.6981 175.5 40.2857 176.078C40.2697 176.102 40.2537 176.126 40.2377 176.146ZM35.7903 174.83C35.7551 174.886 35.7135 174.939 35.6663 174.986C35.6981 174.927 35.7401 174.874 35.7903 174.83Z" fill="#F0F0F0"/>
<path d="M93.1576 127.065C93.1216 128.321 93.0856 129.577 93.0496 130.832C92.9736 133.62 92.895 136.409 92.8137 139.199C92.7297 142.339 92.6417 145.477 92.5497 148.614C92.5057 150.234 92.4604 151.853 92.4137 153.473C92.2897 157.836 92.1671 162.198 92.0458 166.559C92.0338 167.011 92.0178 167.459 92.0058 167.911C91.9458 170.075 91.8858 172.238 91.8258 174.402C91.7578 176.75 91.6912 179.097 91.6258 181.445C91.5778 183.205 91.5285 184.966 91.4779 186.728C91.1179 199.498 90.758 212.268 90.398 225.038C90.3828 225.829 90.0619 226.583 89.5027 227.143C88.9434 227.702 88.1893 228.023 87.3985 228.038C86.6049 228.032 85.8457 227.714 85.2845 227.152C84.7234 226.591 84.4053 225.832 84.3989 225.038C84.5989 217.855 84.8015 210.673 85.0068 203.49C85.1868 196.995 85.3694 190.5 85.5547 184.005C85.6147 181.865 85.6747 179.724 85.7347 177.581C85.8267 174.358 85.9174 171.134 86.0067 167.911C86.0187 167.459 86.0347 167.011 86.0467 166.559C86.0547 166.163 86.0667 165.771 86.0787 165.375C86.2546 159.116 86.4306 152.856 86.6066 146.594C86.6786 144.13 86.7479 141.665 86.8146 139.199C86.8945 136.388 86.9745 133.577 87.0545 130.768C87.0905 129.533 87.1225 128.301 87.1585 127.065C87.1737 126.274 87.4946 125.52 88.0539 124.961C88.6132 124.402 89.3673 124.081 90.1581 124.065C90.9516 124.072 91.7109 124.39 92.272 124.951C92.8331 125.512 93.1512 126.271 93.1576 127.065Z" fill="#F0F0F0"/>
<path d="M257.705 127.897C254.559 139.808 250.8 151.547 246.442 163.069C245.239 166.247 244.009 169.419 242.694 172.552L242.996 171.835C242.409 173.328 241.66 174.751 240.761 176.08C240.7 176.165 240.637 176.25 240.574 176.334C240.885 175.937 240.944 175.858 240.751 176.099C240.649 176.219 240.549 176.339 240.444 176.457C240.164 176.77 239.864 177.064 239.545 177.338C239.464 177.407 239.383 177.474 239.3 177.54L239.675 177.248C239.631 177.351 239.326 177.487 239.231 177.545C238.923 177.731 238.601 177.894 238.269 178.032L238.986 177.73C238.441 177.949 237.873 178.105 237.293 178.194L238.091 178.087C237.521 178.166 236.943 178.172 236.372 178.105L237.169 178.213C236.702 178.148 236.244 178.025 235.807 177.846L236.524 178.148C236.291 178.047 236.067 177.927 235.853 177.79C235.744 177.719 235.411 177.466 235.847 177.8C236.3 178.146 235.905 177.829 235.812 177.737C235.734 177.661 235.664 177.577 235.588 177.499C235.235 177.138 235.986 178.122 235.746 177.699C235.618 177.487 235.501 177.268 235.395 177.044L235.698 177.761C235.56 177.42 235.462 177.064 235.406 176.7L235.514 177.498C235.456 177.046 235.456 176.588 235.512 176.136L235.405 176.933C235.479 176.429 235.612 175.935 235.803 175.462L235.501 176.178C235.634 175.86 235.791 175.553 235.972 175.259C236.055 175.107 236.152 174.963 236.263 174.83C236.283 174.837 235.756 175.435 236.035 175.133C236.109 175.054 236.177 174.971 236.251 174.892C236.369 174.767 236.496 174.652 236.621 174.533C237.039 174.136 236.037 174.92 236.519 174.605C236.868 174.375 237.236 174.175 237.618 174.005L236.902 174.308C237.542 174.045 238.213 173.865 238.899 173.772L238.102 173.879C238.961 173.78 239.829 173.79 240.686 173.909L239.888 173.802C240.973 173.967 242.033 174.265 243.045 174.69L242.328 174.388C244.484 175.313 246.393 176.687 248.298 178.034C250.139 179.367 252.079 180.558 254.1 181.597C258.448 183.759 263.129 185.175 267.947 185.785C274.856 186.632 281.867 185.729 288.337 183.161C294.807 180.593 300.528 176.441 304.976 171.087C305.518 170.511 305.831 169.756 305.854 168.966C305.848 168.171 305.533 167.411 304.976 166.845C303.875 165.835 301.796 165.549 300.734 166.845C299.726 168.074 298.644 169.24 297.491 170.335C296.954 170.845 296.401 171.34 295.835 171.819C295.511 172.092 295.183 172.36 294.851 172.623C294.693 172.747 294.203 173.078 294.956 172.544C294.783 172.667 294.618 172.8 294.448 172.926C291.929 174.783 289.199 176.335 286.316 177.551L287.033 177.249C283.938 178.547 280.689 179.437 277.365 179.897L278.163 179.79C274.744 180.24 271.281 180.235 267.863 179.775L268.66 179.882C265.244 179.413 261.902 178.503 258.719 177.175L259.436 177.477C256.364 176.118 253.449 174.429 250.742 172.441C249.333 171.398 247.848 170.463 246.298 169.644C244.492 168.722 242.537 168.127 240.523 167.889C236.749 167.445 232.902 168.915 230.826 172.176C228.916 175.178 228.941 179.473 231.616 182.025C234.37 184.654 238.542 184.631 241.789 182.987C244.915 181.403 246.793 178.114 248.114 175.011C251.086 168.03 253.717 160.888 256.168 153.709C258.594 146.607 260.793 139.433 262.767 132.187C263.011 131.29 263.252 130.392 263.489 129.492C263.89 127.977 262.985 126.165 261.394 125.802C260.628 125.605 259.814 125.713 259.126 126.104C258.438 126.495 257.928 127.138 257.705 127.897Z" fill="#F0F0F0"/>
<path d="M287.633 127.065L286.553 165.377L285.479 203.489L284.872 225.039C284.879 225.832 285.197 226.591 285.758 227.152C286.319 227.713 287.078 228.032 287.872 228.038C288.662 228.023 289.416 227.702 289.976 227.143C290.535 226.584 290.856 225.83 290.871 225.039L291.951 186.727L293.025 148.615L293.632 127.065C293.625 126.272 293.307 125.513 292.746 124.951C292.185 124.39 291.426 124.072 290.633 124.065C289.842 124.081 289.088 124.402 288.529 124.961C287.969 125.52 287.648 126.274 287.633 127.065Z" fill="#F0F0F0"/>
<path opacity="0.2" d="M183.809 214.342H184.741V171.932H206.469V171.003H184.741V153.108H201.521C201.275 152.795 201.021 152.486 200.761 152.181H184.741V140.362C184.433 140.23 184.122 140.104 183.809 139.984V152.181H165.551V137.037C165.238 137.051 164.93 137.073 164.62 137.099V152.181H150.054V140.882C149.741 141.021 149.433 141.166 149.127 141.319V152.181H136.883V153.108H149.127V171.003H136.883V171.932H149.127V214.342H150.054V171.932C151.967 171.931 153.861 172.308 155.629 173.04C157.396 173.772 159.002 174.844 160.354 176.197C161.707 177.55 162.78 179.156 163.512 180.923C164.244 182.69 164.62 184.585 164.62 186.498V214.342H165.551V171.932H183.809V214.342ZM150.054 171.003V153.108H164.62V171.003H150.054ZM165.551 171.003V153.108H165.917C168.267 153.108 170.593 153.571 172.764 154.47C174.935 155.37 176.908 156.688 178.569 158.349C180.231 160.011 181.549 161.984 182.448 164.155C183.347 166.326 183.81 168.653 183.809 171.003H165.551Z" fill="black"/>
<path d="M178.121 201.626C176.949 206.857 174.14 211.578 170.103 215.104C169.807 215.36 169.511 215.608 169.203 215.852C168.455 215.92 167.712 215.989 166.975 216.06C166.363 216.116 165.759 216.176 165.159 216.232L165.051 216.244L164.975 215.588L164.671 212.932C163.492 211.007 162.761 208.842 162.533 206.596C162.304 204.35 162.584 202.081 163.352 199.958C164.407 197.111 166.319 194.595 168.199 192.099C170.794 188.652 173.318 185.244 173.41 181.041C174.687 182.675 175.749 184.467 176.57 186.372C175.795 186.737 175.1 187.249 174.522 187.88C174.358 188.06 174.194 188.312 174.306 188.528C174.402 188.712 174.642 188.756 174.85 188.78C175.35 188.832 175.854 188.884 176.354 188.936C176.754 188.98 177.153 189.02 177.553 189.064C178.037 190.652 178.365 192.283 178.533 193.935C178.803 196.504 178.664 199.1 178.121 201.626Z" fill="#3F3D56"/>
<path d="M191.399 191.143C189.039 192.859 187.659 195.327 186.588 198.046C185.489 198.398 184.501 199.029 183.72 199.878C183.556 200.058 183.392 200.31 183.504 200.526C183.6 200.71 183.84 200.754 184.048 200.778C184.548 200.83 185.052 200.882 185.552 200.934C184.48 204.15 183.496 207.477 181.6 210.193C180.34 211.986 178.696 213.476 176.789 214.556C176.269 214.852 175.732 215.118 175.181 215.352C173.15 215.508 171.157 215.674 169.202 215.852C168.454 215.92 167.712 215.989 166.974 216.06C166.363 216.116 165.759 216.176 165.159 216.232C165.155 216.012 165.155 215.792 165.159 215.572C165.285 209.712 167.441 204.078 171.258 199.63C171.438 199.422 171.622 199.218 171.81 199.014C173.743 196.949 176.018 195.231 178.533 193.935C182.496 191.874 186.938 190.911 191.399 191.143Z" fill="#0C3C6E"/>
<path d="M167.667 214.008L167.207 215.368L166.975 216.06C166.363 216.116 165.759 216.176 165.159 216.232L165.051 216.244C164.387 216.312 163.727 216.38 163.067 216.448C162.895 216.248 162.723 216.044 162.555 215.836C158.381 210.781 156.377 204.279 156.982 197.751C157.587 191.223 160.751 185.199 165.783 180.997C165.255 183.761 165.871 186.408 166.883 189.036C166.775 189.08 166.671 189.124 166.571 189.172C165.797 189.536 165.101 190.048 164.523 190.68C164.359 190.86 164.195 191.112 164.307 191.328C164.403 191.512 164.643 191.555 164.851 191.579C165.351 191.631 165.855 191.683 166.355 191.735C166.755 191.779 167.155 191.819 167.555 191.863C167.743 191.883 167.931 191.903 168.119 191.923C168.147 191.983 168.171 192.039 168.199 192.099C169.338 194.571 170.566 197.055 171.258 199.63C171.432 200.276 171.568 200.932 171.666 201.594C171.974 203.831 171.774 206.108 171.082 208.257C170.39 210.406 169.222 212.372 167.667 214.008Z" fill="#0C3C6E"/>
<path d="M207.924 156.001C204.481 149.285 199.147 143.635 192.873 139.482C186.58 135.335 179.358 132.81 171.851 132.131C170.867 132.042 169.881 131.989 168.892 131.974C167.724 131.957 150.149 137.026 144.261 141.166C138.377 145.255 133.536 150.67 130.13 156.974C126.73 163.313 125.057 170.435 125.28 177.624C125.572 184.857 127.588 191.916 131.161 198.212C134.685 204.487 139.688 209.807 145.736 213.708C151.87 217.622 158.032 228 165.275 228.366C172.572 228.735 180.894 218.946 187.55 215.973C194.205 212.976 199.959 208.287 204.238 202.373C208.395 196.578 211.085 189.86 212.076 182.797C213.105 175.565 212.626 168.106 210.156 161.194C209.522 159.418 208.777 157.683 207.924 156.001C207.212 154.599 205.126 154.083 203.82 154.925C203.147 155.339 202.66 155.997 202.46 156.761C202.259 157.526 202.361 158.338 202.744 159.029C203.162 159.852 203.551 160.689 203.91 161.54L203.608 160.823C204.967 164.093 205.892 167.527 206.358 171.037L206.251 170.239C206.746 174.048 206.737 177.905 206.224 181.711L206.331 180.913C205.813 184.719 204.797 188.44 203.31 191.981L203.612 191.265C202.847 193.072 201.956 194.822 200.944 196.503C200.431 197.353 199.887 198.182 199.312 198.992C199.059 199.347 198.799 199.696 198.537 200.044C198.194 200.498 199.003 199.451 198.649 199.896C198.589 199.972 198.529 200.048 198.469 200.124C198.287 200.351 198.103 200.576 197.916 200.799C196.669 202.287 195.308 203.675 193.846 204.952C193.482 205.27 193.112 205.58 192.735 205.884C192.548 206.035 192.362 206.193 192.167 206.334C192.174 206.329 192.799 205.854 192.429 206.129C192.313 206.216 192.198 206.304 192.081 206.39C191.305 206.965 190.509 207.51 189.692 208.027C187.811 209.212 185.837 210.243 183.791 211.112L184.507 210.809C180.976 212.296 177.266 213.311 173.47 213.829L174.267 213.722C170.474 214.235 166.629 214.242 162.834 213.742L163.631 213.85C160.181 213.386 156.807 212.474 153.594 211.136L154.311 211.439C152.45 210.653 150.655 209.718 148.945 208.643C148.099 208.109 147.274 207.543 146.472 206.944C146.358 206.858 146.244 206.772 146.13 206.686C145.764 206.409 146.393 206.89 146.398 206.893C146.185 206.74 145.98 206.577 145.784 206.403C145.397 206.087 145.015 205.765 144.64 205.434C143.138 204.112 141.735 202.68 140.443 201.151C140.12 200.769 139.803 200.381 139.494 199.987C139.36 199.817 139.115 199.471 139.655 200.199C139.584 200.103 139.511 200.009 139.439 199.914C139.266 199.685 139.096 199.455 138.929 199.223C138.341 198.41 137.783 197.578 137.254 196.725C136.058 194.795 135.014 192.775 134.132 190.682L134.434 191.399C132.991 187.965 132.004 184.356 131.499 180.666L131.606 181.463C131.15 178.061 131.143 174.614 131.587 171.21L131.479 172.008C131.934 168.712 132.82 165.49 134.117 162.426L133.814 163.142C134.63 161.224 135.592 159.371 136.692 157.6C137.243 156.714 137.826 155.85 138.443 155.007C138.583 154.815 138.725 154.625 138.868 154.436C138.997 154.265 139.354 153.839 138.746 154.591C138.805 154.517 138.863 154.442 138.921 154.367C139.26 153.938 139.606 153.517 139.961 153.101C141.304 151.529 142.759 150.056 144.314 148.694C144.707 148.349 145.106 148.012 145.511 147.682C145.696 147.532 145.881 147.384 146.068 147.237C146.142 147.178 146.218 147.121 146.292 147.062C145.494 147.697 146.07 147.235 146.252 147.099C147.087 146.473 147.945 145.878 148.826 145.315C150.782 144.063 152.841 142.978 154.979 142.072L154.263 142.374C157.366 141.071 171.116 137.995 173.617 138.331L172.82 138.224C176.496 138.737 180.088 139.73 183.506 141.176L182.79 140.874C184.522 141.609 186.205 142.455 187.829 143.405C188.641 143.881 189.436 144.383 190.216 144.91C190.585 145.16 190.95 145.415 191.311 145.676C191.491 145.806 191.671 145.938 191.849 146.071C191.948 146.145 192.047 146.22 192.146 146.295C192.561 146.606 191.573 145.843 192.009 146.188C193.467 147.334 194.852 148.57 196.155 149.889C196.796 150.541 197.414 151.213 198.01 151.906C198.316 152.262 198.615 152.623 198.908 152.989C199.054 153.171 199.55 153.83 198.942 153.023C199.091 153.22 199.241 153.416 199.388 153.615C200.652 155.325 201.774 157.136 202.744 159.029C203.461 160.428 205.538 160.949 206.848 160.105C207.521 159.691 208.008 159.033 208.209 158.269C208.409 157.504 208.307 156.692 207.924 156.001Z" fill="#F0F0F0"/>
<path d="M172.973 204.952C172.663 204.966 172.357 204.885 172.095 204.719C171.833 204.553 171.628 204.311 171.509 204.025C171.389 203.739 171.361 203.423 171.426 203.12C171.492 202.817 171.65 202.542 171.877 202.332C171.915 202.18 171.943 202.071 171.981 201.92C171.967 201.887 171.954 201.854 171.94 201.821C170.548 198.503 161.667 207.754 161.283 210.872C161.114 212.251 161.186 213.649 161.494 215.003C158.618 208.728 157.124 201.908 157.114 195.005C157.114 193.273 157.21 191.542 157.402 189.82C157.562 188.409 157.783 187.008 158.065 185.617C159.607 178.068 162.917 170.994 167.724 164.973C170.473 165.126 172.883 164.708 173.115 159.38C173.157 158.432 173.86 157.611 174.015 156.678C173.752 156.712 173.485 156.734 173.223 156.751C173.141 156.755 173.055 156.759 172.973 156.764L172.942 156.765C172.654 156.778 172.368 156.707 172.119 156.562C171.87 156.416 171.668 156.201 171.538 155.943C171.408 155.685 171.355 155.395 171.386 155.108C171.417 154.821 171.53 154.549 171.712 154.325C171.826 154.186 171.939 154.046 172.053 153.907C172.225 153.692 172.401 153.481 172.573 153.266C172.593 153.245 172.612 153.224 172.629 153.201C172.827 152.956 173.025 152.715 173.223 152.47C172.862 151.909 172.376 151.439 171.803 151.097C169.82 149.936 167.083 150.74 165.65 152.534C164.213 154.329 163.942 156.846 164.441 159.087C164.932 160.995 165.744 162.805 166.842 164.44C166.735 164.577 166.623 164.711 166.515 164.848C164.549 167.377 162.835 170.092 161.399 172.954C161.805 169.779 156.835 158.313 154.912 155.885C152.604 152.967 147.869 154.241 147.462 157.939C147.458 157.974 147.454 158.01 147.451 158.046C147.736 158.207 148.016 158.378 148.289 158.559C148.633 158.788 148.899 159.116 149.053 159.5C149.207 159.883 149.241 160.304 149.152 160.707C149.063 161.111 148.853 161.478 148.552 161.76C148.251 162.043 147.871 162.227 147.462 162.29L147.421 162.297C143.599 167.754 155.85 181.956 158.917 178.767C157.474 182.857 156.568 187.118 156.224 191.442C156.029 193.993 156.04 196.556 156.258 199.105L156.245 199.015C155.564 193.463 143.874 185.208 140.461 185.895C138.494 186.291 136.558 186.201 136.856 188.185C136.861 188.217 136.866 188.248 136.871 188.28C137.401 188.496 137.916 188.744 138.415 189.024C138.701 189.185 138.98 189.356 139.254 189.537C139.597 189.767 139.864 190.095 140.017 190.478C140.171 190.861 140.206 191.282 140.117 191.686C140.027 192.089 139.818 192.456 139.517 192.738C139.215 193.021 138.835 193.206 138.427 193.269L138.385 193.275C138.355 193.279 138.329 193.284 138.299 193.288C136.56 199.274 149.461 208.934 157.303 205.86H157.308C158.085 209.237 159.211 212.525 160.668 215.67H172.672C172.715 215.536 172.754 215.399 172.793 215.265C171.681 215.335 170.566 215.269 169.471 215.067C170.362 213.975 171.252 212.873 172.143 211.78C172.163 211.76 172.181 211.738 172.199 211.716C172.651 211.156 173.107 210.601 173.558 210.042L173.559 210.041C173.583 208.327 173.386 206.616 172.973 204.952L172.973 204.952ZM159.227 177.911L159.233 177.902L159.227 177.919V177.911ZM156.568 201.88L156.465 201.648C156.469 201.48 156.469 201.312 156.465 201.14C156.465 201.093 156.456 201.045 156.456 200.998C156.495 201.295 156.529 201.592 156.572 201.889L156.568 201.88Z" fill="#3F3D56"/>
<path d="M38.0942 179.973C40.5239 179.973 42.4935 178.003 42.4935 175.574C42.4935 173.144 40.5239 171.174 38.0942 171.174C35.6645 171.174 33.6948 173.144 33.6948 175.574C33.6948 178.003 35.6645 179.973 38.0942 179.973Z" fill="#3F3D56"/>
<path d="M90.8862 227.966C93.3159 227.966 95.2855 225.997 95.2855 223.567C95.2855 221.137 93.3159 219.167 90.8862 219.167C88.4565 219.167 86.4868 221.137 86.4868 223.567C86.4868 225.997 88.4565 227.966 90.8862 227.966Z" fill="#3F3D56"/>
<path d="M291.256 227.966C293.686 227.966 295.656 225.997 295.656 223.567C295.656 221.137 293.686 219.167 291.256 219.167C288.827 219.167 286.857 221.137 286.857 223.567C286.857 225.997 288.827 227.966 291.256 227.966Z" fill="#3F3D56"/>
<path d="M302.055 171.974C304.484 171.974 306.454 170.005 306.454 167.575C306.454 165.145 304.484 163.176 302.055 163.176C299.625 163.176 297.655 165.145 297.655 167.575C297.655 170.005 299.625 171.974 302.055 171.974Z" fill="#3F3D56"/>
<path d="M289.257 131.181C291.686 131.181 293.656 129.211 293.656 126.781C293.656 124.351 291.686 122.382 289.257 122.382C286.827 122.382 284.857 124.351 284.857 126.781C284.857 129.211 286.827 131.181 289.257 131.181Z" fill="#3F3D56"/>
<path d="M105.684 167.575C105.681 168.699 105.246 169.778 104.47 170.591C103.693 171.403 102.634 171.885 101.512 171.939C100.389 171.992 99.2893 171.611 98.4395 170.876C97.5897 170.141 97.0551 169.107 96.9463 167.988C96.8376 166.87 97.163 165.752 97.8553 164.867C98.5475 163.982 99.5536 163.397 100.665 163.233C101.777 163.068 102.909 163.338 103.828 163.985C104.746 164.633 105.381 165.609 105.6 166.711C105.656 166.995 105.684 167.285 105.684 167.575Z" fill="#3F3D56"/>
<path d="M193.671 143.978C196.101 143.978 198.07 142.009 198.07 139.579C198.07 137.149 196.101 135.18 193.671 135.18C191.241 135.18 189.271 137.149 189.271 139.579C189.271 142.009 191.241 143.978 193.671 143.978Z" fill="#3F3D56"/>
<path d="M150.077 139.579C150.075 140.703 149.64 141.783 148.863 142.595C148.087 143.407 147.028 143.89 145.905 143.943C144.783 143.996 143.683 143.616 142.833 142.88C141.983 142.145 141.449 141.111 141.34 139.993C141.231 138.874 141.557 137.757 142.249 136.871C142.941 135.986 143.947 135.401 145.059 135.237C146.171 135.073 147.303 135.342 148.221 135.99C149.14 136.637 149.774 137.613 149.993 138.715C150.05 139 150.078 139.289 150.077 139.579Z" fill="#3F3D56"/>
<path d="M93.2857 126.781C93.2831 127.905 92.8485 128.984 92.072 129.797C91.2954 130.609 90.2363 131.092 89.1138 131.145C87.9913 131.198 86.8913 130.817 86.0415 130.082C85.1917 129.347 84.6571 128.313 84.5484 127.194C84.4397 126.076 84.7651 124.958 85.4573 124.073C86.1496 123.188 87.1556 122.603 88.2673 122.439C89.3791 122.274 90.5113 122.544 91.4298 123.192C92.3483 123.839 92.9827 124.815 93.2017 125.917C93.2582 126.201 93.2863 126.491 93.2857 126.781Z" fill="#3F3D56"/>
<path d="M239.664 181.573C242.094 181.573 244.063 179.603 244.063 177.174C244.063 174.744 242.094 172.774 239.664 172.774C237.234 172.774 235.265 174.744 235.265 177.174C235.265 179.603 237.234 181.573 239.664 181.573Z" fill="#3F3D56"/>
<path d="M170.474 141.579C174.008 141.579 176.873 138.714 176.873 135.18C176.873 131.646 174.008 128.781 170.474 128.781C166.94 128.781 164.075 131.646 164.075 135.18C164.075 138.714 166.94 141.579 170.474 141.579Z" fill="#3F3D56"/>
<path d="M343.525 228.302L0.476199 228.425C0.413663 228.425 0.351738 228.413 0.293963 228.389C0.236187 228.365 0.183694 228.33 0.139475 228.286C0.0952557 228.242 0.0601747 228.189 0.0362434 228.131C0.012312 228.074 0 228.012 0 227.949C0 227.887 0.012312 227.825 0.0362434 227.767C0.0601747 227.709 0.0952557 227.657 0.139475 227.612C0.183694 227.568 0.236187 227.533 0.293963 227.509C0.351738 227.485 0.413663 227.473 0.476199 227.473L343.525 227.35C343.651 227.35 343.772 227.401 343.861 227.49C343.95 227.579 344 227.7 344 227.826C344 227.952 343.95 228.073 343.861 228.163C343.772 228.252 343.651 228.302 343.525 228.302Z" fill="#CACACA"/>
</svg>
